<?xml version="1.0" encoding="UTF-8"?>
<svg viewBox="0 0 376.9292 191.21608" xmlns="http://www.w3.org/2000/svg" xmlns:xlink="http://www.w3.org/1999/xlink">
 <defs>
  <linearGradient id="c">
   <stop stop-color="#555753" offset="0"/>
   <stop stop-color="#555753" stop-opacity="0" offset="1"/>
  </linearGradient>
  <linearGradient id="i" x1="346.46" x2="360.71" y1="442.68" y2="482.68" gradientUnits="userSpaceOnUse">
   <stop stop-color="#fff" offset="0"/>
   <stop stop-color="#fff" stop-opacity="0" offset="1"/>
  </linearGradient>
  <linearGradient id="h" x1="189.42" x2="278.85" y1="505.57" y2="540.57" gradientUnits="userSpaceOnUse">
   <stop stop-color="#fcfcfb" offset="0"/>
   <stop stop-color="#fcfcfb" stop-opacity="0" offset="1"/>
  </linearGradient>
  <linearGradient id="a">
   <stop stop-color="#eeeeec" offset="0"/>
   <stop stop-color="#eeeeec" stop-opacity="0" offset="1"/>
  </linearGradient>
  <linearGradient id="g" x1="340.73" x2="344.43" y1="560.73" y2="577.35" gradientUnits="userSpaceOnUse" xlink:href="#a"/>
  <linearGradient id="f" x1="-59.965" x2="-56.265" y1="706.53" y2="723.14" gradientTransform="matrix(.87759 .17805 -.16912 .83356 397.08 -39.175)" gradientUnits="userSpaceOnUse" xlink:href="#a"/>
  <linearGradient id="e" x1="-59.965" x2="-56.265" y1="706.53" y2="723.14" gradientTransform="matrix(-.87759 .17805 .16912 .83356 313.27 -37.76)" gradientUnits="userSpaceOnUse" xlink:href="#a"/>
  <radialGradient id="b" cx="-80.337" cy="531.58" r="19.269" gradientTransform="matrix(1 0 0 .6055 0 209.71)" gradientUnits="userSpaceOnUse" xlink:href="#c"/>
  <radialGradient id="d" cx="-69.827" cy="531.58" r="19.269" gradientTransform="matrix(1 0 0 .6055 0 209.71)" gradientUnits="userSpaceOnUse" xlink:href="#c"/>
 </defs>
 <g transform="translate(-161.54 -436.75)">
  <path transform="matrix(1.1576 0 0 1 283.97 339.17)" d="m129.4 245.31a71.771 43.487 0 1 1 -143.54 0 71.771 43.487 0 1 1 143.54 0z" fill="#5d3667"/>
  <path d="m350.82 490.13c-104.45 0-162.07 30.621-188.49 54.993 55.446 39.956 119.74 53.561 188.49 52.993 68.386 0.37211 126.86-18.347 187.44-52.493-26.42-24.372-82.993-55.493-187.44-55.493z" fill="#ad7fa8"/>
  <path d="m161.54 545.19c56.582 37.645 119.3 54.865 187.69 54.493h0.04808c68.386 0.37207 128.61-19.847 189.19-53.993-47.401 10.596-127.54 40.033-183.81 36.925-1.8277 0-3.6302-0.01133-5.4329-0.04808-1.7869 0.03611-3.5735 0.04808-5.3848 0.04808-56.269 3.1083-134.9-26.828-182.31-37.425z" fill="#5c3566" fill-opacity=".98"/>
  <path transform="matrix(1.7538 0 0 1.7538 253.98 -486.07)" d="m105.06 571.53a48.74 13.132 0 1 1 -97.48 0 48.74 13.132 0 1 1 97.48 0z" fill="#d3d7cf" fill-opacity=".98"/>
  <path d="m352.74 519.47c-29.909 0-54.189 6.5214-54.377 14.568 14.778 3.2863 33.734 5.2406 54.377 5.2406 20.665 0 39.641-1.948 54.425-5.2406-0.18646-8.0471-24.515-14.568-54.425-14.568z" fill="#555753" fill-opacity=".98"/>
  <path d="m438.5 504.69c0 37.499-34.672 40.111-86.255 40.76-56.422 0.69893-87.504-5.8746-84.701-40.76 2.9941-37.265 38.294-67.933 85.478-67.933s85.478 30.434 85.478 67.933z" fill="#eeeeec" fill-opacity=".98" opacity=".73944"/>
  <g transform="translate(401.19 -123.3)">
   <g transform="translate(109,127)">
    <path d="m-156.94 488.84c-16.186 0-29.344 13.38-29.344 29.875 0 5.5286 1.4907 10.713 4.0625 15.156 8.5723 0.7845 17.737 1.2188 27.281 1.2188 8.0018 0 15.723-0.31638 23.062-0.875 2.6948-4.5181 4.25-9.83 4.25-15.5 0-16.495-13.126-29.875-29.312-29.875z" fill="#4d9a06" fill-opacity=".98039"/>
    <path transform="matrix(.78989 0 0 .78989 -102.77 82.924)" d="m-50.558 531.58a19.269 11.667 0 1 1 -38.537 0 19.269 11.667 0 1 1 38.537 0z" fill="url(#d)"/>
    <path d="m-190.69 446.7c-2.4052 0-4.3444 2.1714-4.3444 4.8381s1.9391 4.8134 4.3444 4.8134 4.3691-2.1467 4.3691-4.8134c0-0.14173-0.01387-0.28098-0.02468-0.41962 1.9992-0.42835 4.6654-0.71921 7.3065-0.09874 2.6047 0.61195 5.1484 2.0083 7.2324 5.1343 1.7512 2.6269 3.1552 6.5571 3.7273 12.268-4.5451 3.7046-7.5039 9.6608-7.5039 16.39 0 11.231 8.2346 20.34 18.365 20.34s18.34-9.1083 18.34-20.34c0-7.7084-3.8728-14.419-9.5774-17.871 1.7192-5.6071 3.9214-9.2516 6.1957-11.503 2.6701-2.6429 5.4465-3.5036 8.121-3.5792 2.7162-0.07675 5.2607 0.75677 7.1337 1.5798-0.03784 0.13197-0.0706 0.25791-0.09873 0.39494-0.53634 2.6122 0.95154 5.1195 3.3076 5.6033s4.6967-1.2385 5.233-3.8507-0.95154-5.1195-3.3076-5.6033c-1.1781-0.24187-2.3592 0.06728-3.3076 0.76521-1.1911-0.56047-2.6846-1.1293-4.3691-1.5304-1.4433-0.34368-3.0219-0.56551-4.69-0.51836-3.336 0.09427-7.0425 1.2993-10.269 4.4925-2.6794 2.6522-5.0279 6.6342-6.8375 12.367-1.8485-0.69453-3.8155-1.0861-5.8748-1.0861-2.8183 0-5.512 0.68972-7.8989 1.95-0.70289-5.2362-2.1307-9.1449-4.0482-12.021-2.5178-3.7768-5.9088-5.7039-9.1578-6.4672-1.6244-0.38165-3.207-0.49068-4.69-0.44431-1.7403 0.05442-3.3079 0.33017-4.5912 0.64178-0.78969-0.88292-1.8762-1.4317-3.0855-1.4317z" fill="#4e9a06"/>
    <path transform="matrix(.4374 0 0 .39873 -236.4 253.34)" d="m199 564.96a18.688 22.728 0 1 1 -37.376 0 18.688 22.728 0 1 1 37.376 0z" fill="#eeeeec" fill-opacity=".98"/>
    <path transform="matrix(.19798 0 0 .21754 -193.76 358.42)" d="m199 564.96a18.688 22.728 0 1 1 -37.376 0 18.688 22.728 0 1 1 37.376 0z" fill="#2e3436" fill-opacity=".98"/>
    <path d="m-152.29 475.6c0 2.803-0.42654-3.2442-5.36-1.8337-2.8447 0.81333-5.36 4.6366-5.36 1.8337s2.4013-5.0778 5.36-5.0778 5.36 2.2749 5.36 5.0778z" fill="#fff"/>
    <path transform="matrix(.39857 0 0 .55327 -149.37 215.44)" d="m-50.558 531.58a19.269 11.667 0 1 1 -38.537 0 19.269 11.667 0 1 1 38.537 0z" fill="url(#b)"/>
    <path d="m-176.22 510.21c9.6616-2.6193-8.2878-24.928-18.367-17.656-3.0318 23.379-10.542 22.378-29.838 27.598 9.3922 1.0564 20.951 3.6203 28.348-4.0426 7.2674-19.722 9.8985-6.3873 19.857-5.8995z" fill="#4c9a06" fill-opacity=".98039" fill-rule="evenodd"/>
    <path transform="matrix(-.39857 0 0 .55327 -164.15 214.04)" d="m-50.558 531.58a19.269 11.667 0 1 1 -38.537 0 19.269 11.667 0 1 1 38.537 0z" fill="url(#b)"/>
    <path d="m-137.3 508.82c-9.6616-2.6193 8.2878-24.928 18.367-17.656 3.0318 23.379 10.542 22.378 29.838 27.598-9.3922 1.0564-20.951 3.6203-28.348-4.0426-7.2674-19.722-9.8985-6.3873-19.857-5.8995z" fill="#4c9a06" fill-opacity=".98039" fill-rule="evenodd"/>
   </g>
   <path d="m-75.239 653.34c0.68432 2.2969 1.6084 4.4737 2.7812 6.5 8.5723 0.7845 17.737 1.2188 27.281 1.2188 8.0018 0 15.723-0.31638 23.062-0.875 1.1974-2.0075 2.1328-4.186 2.8438-6.4688-0.93483-0.02589-1.842-0.09518-2.75-0.21875-0.03502 0.05967-0.05832 0.12811-0.09375 0.1875-7.3397 0.55862-15.061 0.875-23.062 0.875-9.5442 0-18.709-0.43425-27.281-1.2188-0.47185 0.03178-0.92787 0.0625-1.4062 0.0625-0.45722 0-0.92373-0.03345-1.375-0.0625z" fill="#555753" fill-opacity=".98039" opacity=".1831"/>
  </g>
  <path d="m423.71 495.85c0 31.517-17.996-33.443-71.655-16.171-62.249 20.037-73.125 31.203-72.03 16.171 2.283-31.338 32.185-57.097 71.842-57.097s71.842 25.579 71.842 57.097z" fill="url(#i)" opacity=".73944"/>
  <path d="m284.02 589.78z" fill="none" stroke="#000"/>
  <path d="m290.69 496.45c-1.2814 0.21738-1.7913 1.5414-7.375 0.84375-32.245 0.48043-77.746 21.525-108.91 46.656 4.5173 0.70461 8.6096 1.4571 12.406 2.3125 29.172-22.517 69.332-41.146 99.875-43.656 3.5219-1.1233 7.2084-2.2017 11.156-3.1875-4.6945-2.6387-6.1596-3.1378-7.1562-2.9688zm-78.812 60.062 0.28125 0.1875 0.03125-0.03125c-0.10529-0.04917-0.20705-0.10768-0.3125-0.15625z" fill="url(#h)"/>
  <path transform="translate(394.69 -145.8)" d="m-33 711.36a17.5 7 0 1 1 -35 0 17.5 7 0 1 1 35 0z" fill="#fcaf3e" fill-opacity=".92941"/>
  <path transform="matrix(.8535 .22435 -.22435 .8535 429.89 -51.201)" d="m-33 711.36a17.5 7 0 1 1 -35 0 17.5 7 0 1 1 35 0z" fill="#f6ac46"/>
  <path d="m354.68 564.5c0 2.6139-9.9345-7.614-11.838 4.7353-0.9956 6.4584-11.838-2.1214-11.838-4.7353s5.3035-4.7353 11.838-4.7353 11.838 2.1214 11.838 4.7353z" fill="url(#g)"/>
  <path d="m236.58 544.71c-0.44205 2.1788-7.4307-8.1156-11.19 1.8393-1.966 5.2062-10.03-3.8761-9.5882-6.0549s5.4551-3.0028 11.19-1.8393 10.03 3.8761 9.5882 6.0549z" fill="url(#f)"/>
  <path transform="matrix(-.8535 .22435 .22435 .8535 280.47 -49.787)" d="m-33 711.36a17.5 7 0 1 1 -35 0 17.5 7 0 1 1 35 0z" fill="#f6ac46"/>
  <path d="m473.78 546.12c0.44205 2.1788 7.4307-8.1156 11.19 1.8393 1.966 5.2062 10.03-3.8761 9.5882-6.0549s-5.4551-3.0028-11.19-1.8393-10.03 3.8761-9.5882 6.0549z" fill="url(#e)"/>
  <path d="m432.25 590.19c-18.738 4.24-45.906 10.046-57.719 7.9375 17.5 10 0 26.906 0 26.906 30.013-4.8216 52.808-18.278 57.719-34.844z" fill="#2e3436"/>
  <path d="m534.08 547.67c-25.152 5.6226-47.506 14.243-82.635 23.121 4.5179 3.2062-4.0709 9.0195-1.6663 13.059 28.512-9.166 56.47-20.493 84.302-36.18z" fill="#2e3436"/>
 </g>
</svg>
