<?xml version="1.0" encoding="UTF-8"?>
<svg viewBox="0 0 1062.5 1062.5" xmlns="http://www.w3.org/2000/svg" xmlns:xlink="http://www.w3.org/1999/xlink">
 <defs>
  <linearGradient id="b">
   <stop stop-color="#9a9595" offset="0"/>
   <stop stop-color="#c3bdbd" offset="1"/>
  </linearGradient>
  <linearGradient id="d">
   <stop stop-color="#b37a21" stop-opacity="0" offset="0"/>
   <stop stop-color="#d59023" stop-opacity=".74902" offset=".25"/>
   <stop stop-color="#be8327" stop-opacity="0" offset="1"/>
  </linearGradient>
  <linearGradient id="a">
   <stop stop-color="#b37c58" stop-opacity=".11373" offset="0"/>
   <stop stop-color="#a06c4a" stop-opacity=".9098" offset=".5"/>
   <stop stop-color="#a36b46" stop-opacity=".14118" offset="1"/>
  </linearGradient>
  <linearGradient id="c">
   <stop stop-color="#d3cec6" stop-opacity="0" offset="0"/>
   <stop stop-color="#c8dadb" offset=".5"/>
   <stop stop-color="#e5e1d7" stop-opacity="0" offset="1"/>
  </linearGradient>
  <linearGradient id="l" x1="816.99" x2="817.95" y1="52.499" y2="696.25" gradientTransform="scale(1.8857 .53032)" gradientUnits="userSpaceOnUse">
   <stop stop-color="#5c554f" offset="0"/>
   <stop stop-color="#91847c" offset=".5"/>
   <stop stop-color="#968881" stop-opacity="0" offset="1"/>
  </linearGradient>
  <linearGradient id="k" x1="1692.9" x2="1692.9" y1="1003.4" y2="628.74" gradientUnits="userSpaceOnUse">
   <stop stop-color="#544941" offset="0"/>
   <stop stop-color="#66554b" offset=".25"/>
   <stop stop-color="#79716b" offset=".5"/>
   <stop stop-color="#7c7570" stop-opacity=".39175" offset="1"/>
  </linearGradient>
  <linearGradient id="j" x1="405.81" x2="524.68" y1="2649.2" y2="2289.2" gradientTransform="scale(3.3062 .30247)" gradientUnits="userSpaceOnUse">
   <stop stop-color="#ac9e97" offset="0"/>
   <stop stop-color="#ac9e97" stop-opacity="0" offset="1"/>
  </linearGradient>
  <linearGradient id="i" x1="1433.5" x2="1688.9" y1="766.85" y2="766.85" gradientUnits="userSpaceOnUse">
   <stop stop-color="#575353" offset="0"/>
   <stop stop-color="#575353" stop-opacity=".48454" offset="1"/>
  </linearGradient>
  <linearGradient id="h" x1="1120.9" x2="1798.7" gradientUnits="userSpaceOnUse">
   <stop stop-color="#5a5757" offset="0"/>
   <stop stop-color="#5a5757" stop-opacity="0" offset="1"/>
  </linearGradient>
  <linearGradient id="s" x1="430.97" x2="430.07" y1="1581.7" y2="877.62" gradientTransform="scale(3.7438 .26711)" gradientUnits="userSpaceOnUse" xlink:href="#a"/>
  <linearGradient id="r" x1="1550" x2="1550" y1="313.81" y2="720.67" gradientUnits="userSpaceOnUse" xlink:href="#d"/>
  <linearGradient id="q" x1="512.59" x2="510.31" y1="1752.5" y2="908.05" gradientTransform="scale(3.166 .31586)" gradientUnits="userSpaceOnUse" xlink:href="#a"/>
  <linearGradient id="p" x1="467.16" x2="468.13" y1="1167.2" y2="1773.9" gradientTransform="scale(3.3648 .2972)" gradientUnits="userSpaceOnUse" xlink:href="#c"/>
  <linearGradient id="o" x1="1549.5" x2="1549.5" y1="750.12" y2="343.26" gradientUnits="userSpaceOnUse" xlink:href="#d"/>
  <linearGradient id="n" x1="574.75" x2="572.16" y1="1265.5" y2="2230.1" gradientTransform="scale(2.723 .36725)" gradientUnits="userSpaceOnUse" xlink:href="#a"/>
  <linearGradient id="m" x1="509.61" x2="508.47" y1="1495.6" y2="2369.4" gradientTransform="scale(3.0466 .32824)" gradientUnits="userSpaceOnUse" xlink:href="#c"/>
  <linearGradient id="g" x1="755.37" x2="753.53" y1="246.27" y2="700.08" gradientTransform="scale(2.2268 .44907)" gradientUnits="userSpaceOnUse" xlink:href="#b"/>
  <linearGradient id="f" x1="731.51" x2="733.34" y1="238.66" y2="706.86" gradientTransform="scale(2.2268 .44907)" gradientUnits="userSpaceOnUse" xlink:href="#b"/>
  <radialGradient id="e" cx="982.07" cy="545.26" r="518.88" gradientUnits="userSpaceOnUse">
   <stop stop-color="#fff" stop-opacity=".56122" offset="0"/>
   <stop stop-color="#686868" stop-opacity=".22353" offset=".65302"/>
   <stop stop-color="#272727" stop-opacity=".37647" offset=".82822"/>
   <stop stop-opacity=".67347" offset=".96875"/>
   <stop stop-opacity=".93814" offset="1"/>
  </radialGradient>
 </defs>
 <g transform="matrix(.87757 0 0 .87757 -806.73 63.776)">
  <path transform="translate(557.2 -19.799)" d="m1498.2 545.26a516.14 493.04 0 1 1 -1032.3 0 516.14 493.04 0 1 1 1032.3 0z" fill="#c2c6ce" stroke="#fff" stroke-width=".55722"/>
  <path d="m2009.8 322.79c-3.7062 0.62454-15.684-0.1555-22.799-1.5784-21.964-3.0429-55.776 1.4142-62.225 1.4142-13.326-0.5-29.647-5.9294-35.355-7.0711-8.7145-2.2929-25.238 3.3576-39.598-2.8284-16.159 0.8091-35.763-0.88927-41.012-1.4142-9.4826-0.94827-11.094-5.2972-16.642-8.0711-11.31-5.6551-3.8138 4.9461-8.8137 8.0711-8.1941 5.1213-8.8167-3.9185-12.728-5.6569-13.156-5.8472-4.0345 4.7069-8.4852 9.8995-6.1535 7.179-10.262-1.0262-14.142-1.4142-4.0077-0.40077-7.5425-2.8284-11.314-4.2426-3.2134-1.205-6.5997 1.8856-9.8995 2.8284-4.4641 1.2755-8.4853-3.7712-12.728-5.6568-3.3645-1.4953 0.7859 7.1568-7.0711 8.4853-3.2643 3.9172-10.235-9.4069-14.478-12.235-5.5083-3.6722 5.859 12.872-3.9069 13.649-2.5298 4.4272-8.4852-5.6568-12.728-8.4853-5.4585-3.639-12.368-6.9441-17.392-9.7353-1.6072 3.1904 6.2859 9.4281-1.5711 15.392-2.2222 4.4444-19.835-11.64-19.978-11.735-10.285-6.8566-1.6188 5.7321-6.3137 7.4926-6.9186 2.5945-11.684-0.35683-16.971-1.4142-5.2996-1.0599-12.061-3.2607-16.97-4.2426 3.6231 5.3746-1.0463 8.3702-1.4142 11.314-0.7691 6.1525-12.305-1.6124-18.385-2.8284-26.769-11.204-61.303-14.744-73.539-14.142-4.4946-0.44945-8.4648 3.7622-12.728 5.6569-7.5072 3.3365-10.037-1.825-15.556-2.8284-5.8496-1.0636-10.342-2.0241-18.385-2.8284-7.69-0.769-13.313-0.76561-19.799-1.4142-7.0352-0.70352-13.755-0.73621-21.213-1.4142-7.4427 0.84612-2.8284 1.8856-4.2426 2.8284-5.159 3.4393 12.215 2.2115 18.385 2.8284 12.318 1.7818 26.399 7.0711 31.113 8.4853 5.9388 1.7817-20.822 4.4254-38.184 1.4142-30.099-1.1849-40.525-17.08-54.447-18.385-4.9023-2.4511-67.12-5.9231-72.125-7.4246-3.4418-1.0325-34.611 0.02244-44.916 0.18934-10.305 0.1669-26.262-4.4434-27.209-1.9571 2.0702 5.4042 22.039 6.3928 37.958 7.5689 14.288 1.0556 38.395 2.5399 40.885 3.0377 16.043 3.0672 42.95 5.3364 54.801 14.142 3.0762 5.3834-15.044 2.2115-21.213 2.8284-6.909 0.6909-35.077-0.82068-41.012-1.4142-7.86-0.78599-12.443 0.67862-19.799 1.4142-6.909 0.6909-75.242-4.2426-82.024-4.2426-7.9113 0-43.611-0.42158-60.811 2.8284-10.88 1.25-42.172-7.2183-55.733-4.25-4.4372 9.1561-6.8147 13.333-11.328 23.221 1.7726 2.5247 23.887-0.58579 26.049-0.58579 13.821 1.75 46.318-2.8015 62.225 1.4142 4.9033 0.49033 11.112 4.3235 15.556 5.6569 5.8384 1.7515 40.402 0.87712 59.397-7.0711 4.9069-1.9627 80.61-1.4142 87.681-1.4142 5.6829 0 11.106 3.0698 16.971 4.2426 6.4644 1.2929 66.954 1.3007 84.853-1.4142 6.909-0.6909 80.61 0 87.681 0 3.3994 0 3.7712 5.6569 5.6569 8.4853 2.0422 3.0634-5.6569 4.714-8.4853 7.0711 10.042 0.17322 12.287 0.60979 18.385 0 6.1872-0.61872 20.506-7.9853 55.154-8.4853 15.66 0 3.8912 4.864 5.6568 7.0711 3.725 4.6562-11.259 3.9434-16.97 5.6568-6.4693 1.9408-27.813 5.1854-31.113 7.0711 26.867-0.92376 50.572-1.9119 55.154-2.8284 6.54-1.308 11.623-4.1004 16.971-7.0711 5.5621-3.0901 9.982-3.9846 15.556-5.6569 5.8384-1.7515 56.569 0 63.64 0 6.2298 0 12.392-3.044 18.385-4.2426 5.2669-1.0534 12.61-1.4142 19.799-1.4142 7.0711 0 56.568 0.25 63.64 0.25s53.547-3.7662 60.811-4.4926c12.372-1.2372 6.0951 5.3332 11.314 9.8995 3.5654 3.1197-0.9428 9.4281-1.4142 14.142-0.4062 4.0622 13.466 3.5418 16.97 4.2426 9.0736 1.8147 12.883-3.0162 16.971-4.2426 5.0482-1.5145 2.304-10.312 2.8284-15.556 0.1559-1.5592 15.604-3.9694 16.971-4.2426 6.3842-1.2768 12.052-1.4142 19.799-1.4142h21.213c10.296 0 5.3777 6.146 9.8995 11.314 2.3253 2.6575 7.0634 10.595 8.4853 12.728 4.2799 6.4198 11.64 0.39168 15.556 0 4.8337-0.48337 8.1593-7.1394 11.314-9.8995 5.5072-4.8188 12.095-3.355 20.971-4.2426-3.1874-7.8313-5.949-13.547-9.4853-21.049z" fill="url(#s)" fill-rule="evenodd" stroke="#af6d4a" stroke-linecap="round" stroke-linejoin="round" stroke-opacity=".39459" stroke-width="2.8418"/>
  <path d="m2053.5 472.36c-2.556-30.433-12.451-71.958-21.293-96h-34.243c-42.169-5.6568-114.05-14-186-14-11.333 0-111.38 0.82619-182.48 8.7071-10.926-1.0926-83.376-1.6928-93.518-2.7071-4.4499-0.44499-8 4-12 6-5.8727 2.9364-5.3333 12-8 18-2.5449 5.7259-19.48 6.696-26 8-17.382 3.4764-5.8514-13.166-8-18-3.5303-7.9431 14.768-9.1784 22-14 9.0821-6.0547-55.994-10.563-84.104-6.5858-10.409-1.0409-109.87-7.1323-173.9 14.586-6.3206 3.9504-13.333-6.6667-20-10-6.3033-3.1517-48.223-6.408-80 8-13.874 5.5497-11.182 0.84421-23.293-4-17.515-6.4402-63.25-7.5607-72.268-7.5607-14.968 43.841-20.182 67.853-25.632 112.27 14.202 6.3261 30.676-0.70711 41.192-0.70711 74.225 5.6568 140.68-10.452 176-6 20.644 2.0644-1.395 8.3702-2 12-1.2254 7.3522-13.333 6.6667-20 10-5.8969 2.9485 14.581 7.3162 18 8 9.7997 1.9599 28.345 0.8404 38.728 1.8787 14.424-4.7801 23.512-1.5334 39.645-5.5139 11.183-1.1521 23.754-1.7532 39.488-5.0367s23.142-15.572 43.614-15.474c12.409-8.9622 27.854 3.5558 47.073-5.7123 5.9129-32.332 34.028-10.885 41.452-10.142 7.0516 0.70516 9.3333 10.667 14 16 1.5316 15.791-33.718 6.4487-36 20-4.0002 6.4003 18.268 7.2537 22 8 10.345 2.069 39.021-0.77274 75.435-15.657 28.018-3.8091 117.62-1.1622 146.56 1.6568 115.21-9.4853 128.27-18.058 150-20 14.111-2.8223 38.08-6.7071 70-6 11.177 0 27.804 8.613 123.54 10z" fill="url(#r)" fill-rule="evenodd" opacity=".48677"/>
  <path d="m2052 459.45c-2.9804-23.335-7.239-39.132-11.314-57.983-6.5496-0.11257-19.783-1.7021-28.284-2.4749-6.7865-0.61696-21.938-8.9132-36.77-8.4853-13.429-2.6857-4.3169 6.4754-8.4852 12.728-1.8559 2.7838-14 2.3899-18.385 2.8284-11.627-6.6862-8.6293-15.628-26.163-18.385-6.6582-3.3291-8.606 9.0274-10.607 11.314-5.3902 6.1603-11.249 0.43076-15.556 0-12.023-8.344-30.012-13.419-35.355-15.556-10.367-4.1467-7.5893 8.8543-8.4852 9.8995-6.7963 7.929 0.5287 4.7583 1.4142 12.728 1.2098 10.888-11.011 7.6065-19.799 8.4853-19.954-0.47946-41.309-16.07-76.368-22.627-6.5292-1.9587-15.358 0.82864-21.213 1.4142-6.4206 0.64205-10.325 2.9985-16.971 5.6569-6.0663 2.4265-35.153-3.5153-42.426-4.2426-20.125-2.0125-6.5349-9.1488-7.0711-9.8995l-7.0711-9.8995c-2.9227-4.0918-48.103 2.7637-76.368 9.8995-8.8173 2.6452-8.3064 6.5833-12.728 9.8995-3.3731 2.5298 3.7712 7.5425 5.6568 11.314 0.9971 1.9941-18.456 5.3883-19.799 5.6569-6.6593 1.3318-31.103-4.5235-36.77-5.6569-7.1845-1.4369-35.392-3.5392-42.426-4.2426-5.1166-0.51165-34.206-5.4535-39.598-7.0711-6.541-1.9623-40.069 0-48.083 0-7.6405 0-8.9862 4.4931-14.142 7.0711-5.5599 2.78-23.598-0.13168-35.355-8.4853-3.026-1.513 6.6762-13.352 7.0711-14.142 4.9181-9.8364-4.3313-6.93-7.0711-11.314-0.4126-0.66021-5.5769 6.7003-11.609 7.1742-4.6093 0.36211-11.517-5.2318-18.228-5.1543s-8.284 7.3524-20.634 6.2101c-6.67-0.61691-8.6062-8.5802-13.169-8.23-6.3937 0.63937-9.6196 4.8098-14.142 7.0711l-14.142 7.0711c-6.374 3.187-9.3751 23.747-14.142 28.284-31.388 2.7497-48.969-7.2482-55.154-8.4853-9.0716-1.8143-10.433 1.2915-15.556 2.8284-7.2764 2.1829-26.393-3.9406-31.113-5.6568-6.5387-2.3777-24.8-4.2324-39.598 0-18.971 1.3901-46.921-11.374-53.387-12.021-7.2722 23.032-11.137 41.015-14.849 66.114 12.992 13.624 22.755 7.1899 31.466 9.546 6.909 0.6909 81.114 2.1311 101.82-7.0711 7.1662-2.6059 14.798 7.7024 35.355 8.4853 6.909 0.6909 44.146-3.0217 63.253-7.9744 2.1244 0.37005 2.7604 2.4185 6.796 4.5108 3.6939 1.9152 5.2262 9.482 7.5565 11.682 2.959 2.7934 9.6735 2.4028 12.606-2.3928 1.1614-1.8989 0.6415-4.3789-0.1141-12.386 6.8037 0.68037 12.096-1.218 24.453-0.51089 5.1498 0 16.585 7.7782 35.355 7.0711 7.9744 0 26.215-7.5056 31.113-8.4853 3.6315-0.7263 10.159-5.0794 14.142-7.0711 5.3274-2.6637 33.984 2.7535 59.397-4.2426 19.26-0.79468 29.596 7.1817 33.941 8.4853 6.9472 2.0842 29.945 5.6569 36.77 5.6569 7.9334 0 33.759 0.58388 39.598 0 5.1913-0.51914 11.046-3.0577 16.97-4.2426 6.4645-1.2929 25.897-0.43338 38.184 5.6568 6.8611 2.0583 27.334 2.6406 39.598 0 21.146 4.8151 61.782 1.8828 66.468 1.4142 6.909-0.6909 14.264 0 21.213 0 4.7644 0 83.284 2.8203 94.752-11.314 5.5383-2.0139 24.011-6.0842 38.184-1.4142 6.909 0.6909 64.383-3.3833 80.61 4.2426 4.2446 1.2734 4.6939 12.346 5.6568 15.556 1.5145 5.0482 22.494-14.379 25.456-16.971 7.3303-6.414 12.97 13.678 25.456 16.971 2.6239 2.6239 13.849-5.0359 15.556-5.6568 5.3572-1.9481 15.001-3.182 22.627-3.182z" fill="url(#q)" fill-rule="evenodd" opacity=".86243" stroke="#a8592e" stroke-opacity=".2" stroke-width="3.2319"/>
  <path d="m1303.8 419.2c-8.0967-5.3488-8.8003-14.529-22.901-24.966-12.12-8.971-21.701-1.0945-25.091-0.89802-6.5003-1.0928-15.194 7.485-9.902 12.496 8.1269 0.76293 14.257-5.3546 22.087-6.2873 1.2542-0.29767 7.9736-0.67585 12.885 0.96832 15.485 5.184 13.143 17.839 22.922 18.687z" fill="#8f4d0c" fill-rule="evenodd" stroke="#965311" stroke-linecap="round" stroke-linejoin="round" stroke-opacity=".50811" stroke-width="1.8388"/>
  <path d="m2033.6 431.52c-9.5346-20.073-23.312 5.3779-38.993-3.7072-16.204-7.7486-34.342-10.002-48.717-19.108-22.363-11.021-11.317 19.275 4.6546 18.379 16.241-5.3642 28.699 16.977 47.518 11.339 14.198 4.9754 23.028-8.8033 35.537-6.9025zm-171.83 0.70712c0.3072 18.709-29.233 9.3634-36.063-2.8284-12.292-8.6138-5.2262 15.086-20.304 7.9239-14.437-4.3338-23.609 4.6423-34.176 10.18-9.2133-5.143-4.4989-31.475-18.053-13.733-14.657 9.3584-17.382-27.199-37.776-16.392-13.308 4.367-27.311-9.7358-36.88-9.5703 13.061-9.115 32.73 7.4611 49.431 1.7921 14.543-0.84755 17.48 25.791 33.436 11.43 7.8087 6.6979 10.954 15.522 23.008 8.1836 9.1278-1.7769 36.026 9.2237 22.778-9.9019-8.1343-9.9295 19.286 6.3912 24.351 9.0528 9.2438 5.4487 21.874 6.7754 22.816-5.8229 4.3379 0.83379 6.6519 5.8196 7.4301 9.6854zm-124.45 2.8284c0.1846-16.514-18.91-16.331-26.333-4.2558-18.764 3.5696-36.651-11.423-54.024-17.293-14.198-17.464-32.013-1.0057-11.944 12.063 17.154 13.317 41.599 9.6856 59.066 22.92 15.233 9.7199 7.8802-14.06 21.92-7.0711 3.7406-4.7977 2.9005-10.634 11.314-6.364zm-95.46 1.4142c-8.5518 1.3966-20.142-1.5987-29.275-6.9607-24.404 11.591-52.302 5.645-77.498-0.11034-17.797-11.279-39.448-7.6864-56.618-18.869-18.297 2.7397 14.71 16.38 22.194 15.399 18.508 4.9285 36.826 14.747 56.565 18.304 18.384-2.7004 34.81 4.4394 52.218 4.8785 12.53-3.9997 37.642 15.671 32.414-12.641zm-152.74-0.70709c8.153-5.1479 15.823 5.0784 23.806 5.4841 6.0481-0.42597 23.262 1.7961 18.143 9.2667-10.289 6.57-17.944-7.2183-28.231-6.0895-8.1978-1.1513-16.591-0.38145-24.713-1.9183-5.8404-6.0504-11.91-11.567-19.991-14.623-8.0998-5.9418-15.842 3.3623-24.64 3.4877-7.0808 7.3842-13.954-7.2429-21.719 0.51547-4.6454-0.72269-10.349-8.9737-11.749 0.34134-7.6245-1.2498-15.524-7.1301-24.272-5.0407-7.5397 0.02046-19.723 10.159-17.107 17.512 7.5382 1.3016 22.82 3.6003 21.58-8.2284 5.1322-9.0621 17.763-1.0494 24.643 2.2813 8.7678 4.0544 19.335-3.9614 27.321 1.8469-4.7094 8.8058-16.966 2.6452-25.094 4.357-7.8499 1.9694-13.986-6.7227-20.3-5.7286-4.3389 7.5004-11.486 11.892-20.424 10.014-8.891-0.64516-20.369-3.5295-22.283-13.649 0.5856-7.9262-11.597-21.137-15.37-8.7486-1.394 11.659-11.771 11.472-20.76 9.8991-8.7489-0.6682-18.212-0.23806-25.094-6.7405-2.6764-3.1039-13.383-11.61-13.934-8.7295 10.579 7.4379-5.8304 11.968-9.9908 4.2208-9.4948-7.9065 1.9003-18.773 10.648-20.164 9.0872-3.5888 17.347 3.4814 19.939 11.829 4.7093 8.9086 16.088 8.1653 24.712 7.6885 8.8986-2.5557 11.782-15.838 23.231-11.434 11.63 2.2936 20.324 15.115 33.108 12.319 9.312-1.8472 18.92-7.1819 28.033-1.2832 7.5425-5.0093 16.755-5.5694 24.372 0.39371 9.4994 0.37206 19.528 1.4592 28.661-1.8079 10.797-4.1078 13.645 7.7532 21.92 11.314 4.8412 2.2861 10.48 4.208 15.556 1.4142zm-192.33 4.2426c8.0074 3.2652-0.1784 14.175-7.1158 10.327-4.1747 0.58464-12.588-2.8518-13.46-1.5081 4.6349 5.3354 10.034 11.042 9.7763 18.603-0.7621 8.8196-13.079 5.9304-14.544-1.1238-3.0592-7.6904-9.7706-12.532-17.501-14.817-5.588-2.4516-16.62-6.5587-14.596-13.537 5.6338-6.9867 14.437-0.72468 18.143 5.0507 6.8629 4.6515 10.865-0.20209 10.804-7.2738 8.38 0.16138 12.572 12.734 21.682 8.1944 2.8723-0.16186 4.8305-2.0343 6.812-3.915zm323.86-47.376c-2.6665-1.5357-38.31-1.9339-18.354 4.3987 12.43-3.1186 23.165 5.0123 22.546 17.177 4.1764-7.7883 6.7658-19.662 16.64-11.401 4.099-10.532-15.028-7.8664-20.832-10.174zm-9.8995 10.607c-5.1424 17.109-27.685 9.093-41.557 16.703-14.325 3.9991-42.633-17.627-46.132-5.1643 18.166 8.9946 39.58 6.9073 59.228 9.6746 10.123-1.2093 42.535 7.7971 19.269-7.0711 7.0427 3.2364 14.244-20.262 12.136-4.0562 4.9781 19.068 10.523-20.016-2.9439-10.086zm-381.84 36.77c-5.56-3.1973-15.434 2.6082-16.971-7.0711-2.8235-4.2003-7.1608-8.9044-10.5-2.0812-7.811 4.4572-16.509-1.9058-24.294-3.6057-8.1609-2.3895-16.881 1.8516-24.796-1.1063-8.4857-3.4396-3.6065-14.52-10.474-18.853-6.1609-1.7779-13.597 5.8864-21.154 3.0187-5.3836 0.45895-16.566-3.6237-17.196 3.7211 5.8453 5.191 13.499 4.97 20.766 4.8233 6.4063-0.572 16.782-4.9538 18.842 4.3962 2.0072 7.0803 7.6775 12.419 14.973 13.697 8.9591 3.1817 19.045-2.694 27.422 2.6807 7.3911 4.5599 15.583-1.1706 23.22-0.91921 5.3465 3.0302 13.46 9.0107 19.008 5.2162 0.5792-1.2414 0.2479-2.8198 1.1522-3.9164zm693.67-25.456c-11.895-7.5034-29.138-5.9088-41.425-16.108-7.5389-5.4581-24.425-8.5928-9.4862 0.55128 8.9909 18.607 30.715 12.953 47.36 15.201l3.5517 0.35518v1e-5zm0.7071 13.435c6.8603 2.5667 35.474 14.156 21.7 20.189-7.4518-6.2221-18.776-10.097-21.7-20.189z" fill="url(#p)" fill-rule="evenodd" stroke="#82481c" stroke-opacity=".24324" stroke-width="2.6747"/>
  <path d="m1339.3 318.99c-5.1934-3.1976-69.711-2.257-94.491-3.864-6.5003-1.0928-25.694-1.015-20.402 3.996 8.1269 0.76293 60.757-0.85463 92.587 2.2127 9.0085 0.40465 19.749 0.45914 22.306-2.3448z" fill="#8f4d0c" fill-rule="evenodd" stroke="#965311" stroke-linecap="round" stroke-linejoin="round" stroke-opacity=".50811" stroke-width="1.8388"/>
  <path d="m2052.4 584.74c-4.306 38.433-12.08 69.529-24.422 102.82-0.9731 0-6.4294-0.22488-9.4911 2.0771-8.0525 6.0546-10.05 23.921-19.999 23.379-14.326-0.78139 0.4034-18.031-4.8687-21.876-3.7024-2.7001-6.3779 0.66291-8.8614 0.66291-42.169 5.6568-0.7266 20.278-45.807 20.278-7.1324-6.7071-21.44-11.862-26.4-44.67-9.2026-11.595-25.092-21.422-49.003-22.252-22.496 2.7055-44.442 3.3015-57.1 32.767 13.47-14.259 28.024-34.205 81.436-20.523 22.531 5.7717 20.524 36.952 19.72 36.999-2.1928 25.128-41.959 41.908-74.877 42.46-12.412-1.5698-34.945-1.6907-49.341-18.144-18.638-5.8466-32.674-10.348-68.395-19.971-14.508 0.27661-52.823 7.4522-67.694 7.2814s-29.632-8.3952-43.702-9.22-24.62 7.164-36.724 5.4784-20.107-4.5602-29.083-7.3131c-10.926 1.0926-68.526 16.542-78.669 17.556-4.4499 0.44499-44.861-1.4578-72.971-5.435-20.103-11.937-39.42-1.6977-56.579-6.3951-14.33-6.1116-13.774-15.847-22.415-4.8008-19.674 25.15-32.372 2.8221-35.706 4.4888-1.5758 0.78791-19.918-3.8535-27.948-2.9987-4.0154 0.42741-10.226 11.244-20.374 8.5379s-13.626-11.159-19.248-11.086c-11.244 0.14547-6.3133 8.2275-17.528 6.8873s-13.12-4.3243-21.064-7.9263c-3.4685-1.3874-6.9245 8.9772-13.528 7.7024-4.4827-0.56759-17.063-8.5318-21.811-8.393s-5.0754 7.0876-7.3377 9.8193c-5.2622 2.7316-16.095-6.461-19.122-5.25-17.515 6.4402-38.543 3.4393-47.561 3.4393-12.968-34.091-23.682-68.353-29.882-112.77 14.202-6.3261 53.675-9.3995 64.191-9.3995 9.2782-0.7071 84.635 7.1793 101.57 7.1913s28.645 3.0111 47.775 1.9053c19.837-4.6414 44.269-5.6096 62.614-5.047 18.345 0.56263 32.725 3.3632 49.429 4.1379s39.268-0.47623 52.768 0.46856c29.056-1.1765 103.02-15.377 139.44-0.49316 28.018 3.8091 88.629-5.9089 117.57-8.7279 144.91-1.1213 169.99 6.0372 191.72 7.9792 14.111 2.8223 66.364-7.435 98.284-8.1421 11.177 0 5.2621 7.9004 100.99 6.5134z" fill="url(#o)" fill-rule="evenodd" opacity=".49206"/>
  <path d="m2031.4 676.31c6.5428-20.025 10.555-34.564 14.603-52.451-76.202 15.238-133.01 20.107-161.14-8.886-13.317-0.21442-2.9197-11.623-61.833-7.5248-42.913-4.9023-38.137-5.7987-54.696-7.9897-33.12-4.382-35.084 3.0576-63.098 9.9152-22.304-1.4344-45.994-1.3006-52.976-5.387-25.983 9.9136-50.258 1.1072-75.231 3.7924-39.974 4.6853-39.146 14.362-74.424 5.7428-12.889 0.69026-2.9285-5.6936-15.67-10.563 2.2581-5.369 11.814-10.223 0.1176-11.473-3.5208-0.00553-20.107 5.1066-24.329 5.3917-8.2217-1.2148-34.706-0.65116-39.426-0.18089s-8.0392 5.9736-12.932 6.4968 10.64 7.5663 2.624 6.616c-5.0157 0.54973-38.08 2.6061-43.168 3.156s-13.698-10.407-18.807-9.8832-16.371-1.9633-21.24-1.6769-23.117-0.59568-27.572-0.59949-20.145 4.7422-23.984 4.3426 15.501-5.9113 10.046-9.0484c-1.0379-1.8783-35.39 6.1706-48.984 7.9797-4.0934-9.1909-17.428 2.3783-26.929 1.0406-20.001 3.1623-28.169 6.4176-48.43 8.5988s-38.115-0.21156-52.489-1.3455c-7.8955-0.35514-13.297 7.7634-24.415 8.8793-11.617 1.1158 14.55-8.771 6.2918-17.137-2.3789-3.933-14.739-3.2358-30.294 8.2821-18.555 1.0179-24.305 7.8564-25.463 11.206 3.1834 3.6993 16.233 11.943 28.939 11.755 76.758 0.20945 161.21 2.3826 168.23 4.2872 5.7536-5.1414 9.4286-16.992 84.184 4.0506 19.256-11.958 66.093 7.9767 120.17-12.595 22.951 6.1758-36.484 20.889-11.132 20.158 60.073-3.5315 10.96 27.033-24.451 17.854-4.8291 2.7592 21.99-1.1393 49.52 25.847 11.53 5.486 10.27-5.1436 12.282-12.847 30.942 9.5632 41.515 0.36608 78.124 2.2873s76.222 13.716 92.834 13.497c23.032-0.30413 48.548-10.362 73.182-11.285 3.2896-0.30771 8.2536 3.8744 13.952 10.3s49.13 11.094 48.856 18.26c19.726 12.166 40.745 17.828 68.618 19.741 32.373 1.413 59.599-27.424 56.737-53.756-2.3611 13.667-8.7469 33.683-31.027 43.12-13.28 8.9369-73.456-0.70445-77.395-9.3503s-41.144-12.796-42.984-19.377 13.187-4.5923 16.708-4.9604c10.084 16.528 6.0655-10.604 26.604-25.49 44.245-32.419 87.106-57.083 129.55-4.7227 27.533 63.212 68.813 3.0834 112.36 15.933z" fill="url(#n)" fill-rule="evenodd" opacity=".84656" stroke="#a8592e" stroke-linecap="round" stroke-linejoin="round" stroke-opacity=".2" stroke-width="3.009"/>
  <path d="m1829.5 670.86c9.4622-0.22772 34.096-5.3494 44.059 7.7138 5.7083 16.205-9.298 14.357-13.293 14.954-4.4751-0.61168-4.7386-3.1933-8.3311-6.1901-2.8696-2.3548-7.222-2.5584-11.75-4.1552-17.828-2.0256-25.204 9.2788-25.632 13.969-0.8957 3.775 2.6351 8.0222 5.0551 10.603 4.7217 4.3208 14.039 8.2158 31.432 5.9041 4.5757-0.82029 18.585-2.2751 30.364-18.277 2.8592-3.9998 1.0326-9.8944-0.3538-14.681-2.7523-4.6142-8.78-8.9452-13.921-10.425-11.516-2.5623-28.315-0.79973-37.63 0.58341z" fill="#bc683b" fill-rule="evenodd" stroke="#e7d29f" stroke-linecap="round" stroke-linejoin="round" stroke-opacity=".36216" stroke-width="3.4548"/>
  <path d="m2029.9 607.68c-16.69-0.0988-35.905-3.6512-52.767 0.38716-18.756-3.458-36.524 21.847-55.97 5.6583-21.507 1.7725-43.897 0.03193-64.562 6.8819-17.162 9.5138-33.613 10.34-53.902 23.867-21.294 10.481 3.6069 40.264-17.622 28.17-5.3499-9.2719 19.139-37.835 25.615-41.742-10.072-0.0787-39.591 15.49-43.362 35.627-4.8176 21.239-27.271 8.5702-26.823-6.9378-20.54-9.1178-36.62 14.914-57.498 14.771-5.5743 11.205-34.327 14.468-20.452-0.60442 19.276-0.58261 28.978-16.036 46.952-21.396 7.2744-17.026 26.349 3.8572 36.485-12.803 22.232-1.9345 40.117-13.992 57.7-26.512 13.439-8.0363 7.8068 24.661 23.098 10.021 15.816-17.868 39.875-8.4107 59.77-13.971 18.983 2.9033 40.312-9.8877 55.608 3.587 7.9687-12.345 25.007-10.268 37.339-13.321 12.465 11.652 28.584-16.986 36.243 2.3333 4.6827 1.6982 10.152 3.5885 14.146 5.9847zm-249.39-3.318c4.3769 1.692 8.9987 8.8642 1.9333 10.419-5.881 1.1568-11.771-0.67424-17.438-2.0596-4.8437 0.03514-12.17 0.6989-14.124 5.4888 0.6806 5.0434 5.1082 9.2524 3.1295 14.652-3.7059 3.9191-11.198 3.5297-13.394-1.8397-2.4119-5.9194-5.3823 4.3697-7.6063 6.3397-3.8054 3.5202-9.2834 4.5725-14.25 5.5642-5.1915-0.45212-9.3445 2.5616-13.492 5.1895-4.976 3.1583-10.926 4.6704-16.73 3.0747-4.5746-0.99889-9.9375-6.3677-14.474-3.0439-4.5958 4.4527-10.531 7.4863-16.744 8.869-7.3737 1.6984-8.6942-7.8146-8.3102-13.153-1.3777-3.8549-10.393-6.0732-6.4425-11.05 7.3134-3.2916 15.567-4.6275 23.541-3.6748 8.4171 3.282 16.766 7.5695 25.907 8.2911 6.6497 0.90568 12.108-4.1923 18.778-3.4655 5.8772-1.4859 10.648-5.8625 15.667-9.0762 2.5022-5.3745 5.5092-10.522 10.026-14.495 4.9259-3.5371 10.637-6.2528 16.751-6.7975 7.3637-1.3694 14.928-0.55879 22.367-0.62572 1.7055 0.18379 3.2705 0.93308 4.906 1.393zm-112.25 53.146c-4.5578 2.2008-8.5238 5.474-13.266 7.3424-3.3858 2.0016-7.2992 2.7105-10.988 3.9254-4.2322 0.33464-8.566 0.27022-12.76-0.4547-3.9209-1.2034-8.0224-0.33482-11.937 0.38692-2.7467 1.2461-5.2086 3.109-7.6702 4.8388-1.9993 2.1889-4.6189 3.9142-7.727 3.3585-3.1315 0.23523-6.1494-0.58595-8.9003-2.0436-2.3154-0.81338-8.5151-4.3795-8.1184 0.469-0.6766 3.9026 4.094 4.6266 6.6244 6.2946 3.0321 1.3388 6.4946 1.1929 9.7351 1.1945 3.6813-0.48353 6.9753-3.5072 10.84-2.1548 4.2669 0.08621 6.4055 4.0446 9.9082 5.7671 4.4765 1.9785 9.0871 3.7214 13.768 5.1516 3.3574 0.97863 7.1936-0.08024 10.026-1.8891 2.7562-2.4632 1.5909-5.0427-1.7492-5.8603-3.3362-1.8383-7.3008-1.2747-10.958-1.5093-3.6074 0.7096-7.4101-0.31775-8.0766-4.4633-1.8979-3.5771 4.4699-3.1135 6.5368-3.857 3.4845 0.18602 7.0164 0.70378 10.436-0.32305 4.4923-0.76045 7.9104-4.3109 12.503-4.9482 4.0422-0.79316 8.1104 0.69516 12.188 0.17738 3.5622 0.6627 6.0267-2.0864 8.5422-4.0807 2.1701-2.2122 5.5621-6.8654 0.7989-8.2979-1.3492-1.19-8.5446 0.0969-9.7562 0.9756zm67.751-51.146c-13.515 6.7543-13.567 15.355-24 14-9.3817 0.9786-19.105-2.2823-28.234 0.03552-9.5323 1.106-19.89 1.183-29.254-1.5268-8.9216-1.6041-20.296 8.7073-17.938 18.016 4.5423 6.5358 2.3645 16.988 11.301 19.036 5.2324 8.5326-14.297 13.516-12.659 3.1243-0.2163-9.8325-13.16-6.697-19.716-7.1854-8.2747-1.5365-16.225 0.72309-23.86 3.8026-8.8025 3.3854-16.097 10.011-25.136 12.696-7.2877 1.3216-13.894-2.4786-21.013-2.7738-5.9634-0.88584-16.317-0.47003-12.128 8.1597 1.2774 9.921-12.101 7.6952-18.425 7.6156-5.8356 2.1115-20.931-3.1638-10.914-8.9297 10.705-0.36689 12.974-9.8843 13.977-18.57 7.7709-5.0619 15.56 3.3268 23.392 4.2502 9.2326 3.6947 18.673 0.68786 26.814-4.1028 8.6439-4.5316 2.2709-17.039-6.6668-12.124-7.5686 4.4075-19.194 10.423-26.802 4.4808-4.7137-11.159 0.6133-21.227 20.263-29.004 2.7442-2.5921 48.06-5.1392 58.059-2.8264 5.2497 0.15636-3.4545 5.1527-15.411 7.5907s-27.166 2.3179-28.926 6.2414c8.9373 4.7374 16.543 1.8745 26.503 1.2475 10.601-1.0925 20.897-4.4168 29.937-10.092 9.3298-2.8609 16.975-9.6306 26.436-11.99 4.381 5.8467 13.127 6.6078 20.501 4.118 8.6945-1.2341 17.97-4.038 26.49-0.77135 7.3438 9.916 12.894 1.8046 21.638 0.92832 2.8081-0.81419 10.293-8.1656 15.773-5.4457zm-226 52c-2.958-0.26763-5.9376-0.28769-8.8988-0.49145-2.8712 0.93547-4.2836 3.9879-6.4131 5.9315-1.7949 2.4748-1.6707 6.1892-4.5549 7.8617-2.0871 1.8927-4.5059 3.1337-7.0673 1.1378-2.5709-1.8467-5.736-1.2718-8.2866 0.27667-2.4857 0.96913-5.3035 1.0267-7.8922 0.55419-3.3318-1.2032-6.3975-3.5005-10.113-3.2524-3.3834-0.04102-6.9378-0.3254-10.063 1.2443-2.6798 1.2508-1.1129 5.3684-1.751 7.8016-0.0643 2.6014 1.1144 5.0665 2.2549 7.3231 2.0087 1.6333 3.9816 3.4323 6.3141 4.6056 2.0515 0.32725 5.7319 3.5386 6.9221 0.7239-0.0023-2.5502 1.1876-4.8432 0.9654-7.4423-0.4752-2.7254 0.6006-5.7966 3.8888-5.3498 2.5509-1.4113 5.4574-0.86355 8.1938-0.42437 3.4886 0.10776 6.3256 2.2767 9.401 3.595 2.8647 0.80943 5.8536 1.0689 8.7816 1.5496 2.208-0.23458 6.1519-0.79192 5.9599-3.7219-0.0653-4.2571-0.2497-8.5222-0.104-12.781 1.1213-2.1978 4.1624-2.0786 6.0511-3.3945 1.8601-1.101 6.1697-0.75929 6.0544-3.4093-0.295-0.78718-0.0429-1.641 0.356-2.3383zm3-20.5c-0.2767 2.8579-0.6714 5.7251-1.1406 8.5534-1.206 1.9685-2.2569 4.4259-4.3928 5.511-2.1373 0.5729-4.9401 3.1771-6.7914 0.77766-1.5612-2.1479-4.3516-1.9278-6.6752-1.842-2.6967 0.39529-4.5074 2.829-7.0023 3.7825-2.9778 1.2734-5.7134 3.3203-9.0554 3.5009-2.3906 0.52281-5.0157 0.41515-6.7839-1.4749-2.6386-0.64285-2.323-3.7263-3.3192-5.673-0.8031-2.7138-0.3453-5.622-0.1767-8.3966 0.7744-2.772 1.2213-5.6703 2.3982-8.3084 1.4053-2.4672 2.5773-5.4847 5.4907-6.5068 3.5196-1.6814 6.9627-3.5283 10.662-4.8092 3.5921-1.4037 7.5025-0.43422 11.238-0.56973 3.435 0.17754 6.8959 0.43304 10.173 1.5537 2.8828 0.64262 5.9021 0.24335 8.75 1.1511 1.9197 0.76055 4.4394 0.52116 5.9227 2.0013 1.6486 2.9518 3.3192 5.9679 4.07 9.2974 0.9288 2.5489-1.7981 4.5633-3.1937 6.2125-2.3828-0.9793-3.215-4.0191-5.6105-5.2437-1.8754-1.8169-3.6979-4.2478-6.5763-4.2562-1.1574-0.38489-5.2386-1.031-2.7346 0.9957 1.8381 1.2342 2.4104 3.3218 4.7485 3.7434zm-72.5 53c-4.7514 0.91042-9.6159 0.22137-14.406 0.66606-4.2564 0.01198-8.4276-1.1686-12.237-3.0083-5.5195-2.0904-11.627-2.2289-17.356-0.99202-2.5535 0.6352-5.358 2.0581-6.2549 4.7043-0.6267 2.6762 2.1253 4.0138 4.0447 5.0663 7.2894 4.0101 16.081 3.8105 23.963 1.9033 6.1342-1.4845 12.129-3.6142 18.406-4.443 1.9341-0.32607 3.5761-1.9398 3.8407-3.8967zm15-75.5c-11.194-2.1723-25.48 5.2283-38.061 6.1353-11.483-0.79547-32.846 1.4101-28.804 17.791 14.484 4.0602 27.483-10.745 42.346-11.036 14.158-6.5989 26.094 19.793 6.5363 14.999-13.821-4.0553-26.835 1.0197-39.018 7.1109-15.665 8.7054-21.475-13.933-36.346-10.386-13.917-8.4587-29.332 0.06444-44.154 2.3856-14.901 2.4036-27.876-4.1286-42-7-10.415-1.2107-28.819-13.365-34.5-0.5-12.528 9.9064-28.574-4.9676-43.082-2.0146-17.272 5.8566-34.828-2.829-52.543-0.48544-15.72 0.53651-31.415-4.8157-46.328 1.8022-14.959 0.82588-30.775 0.13529-44.865-2.971 12.722-5.9098-28.784-4.4535-8.7342-11.058 16.309 0.48036 26.43-13.206 41.06-15.436 20.018 7.2277-21.99 7.4634-8.0841 19.197 12.36 11.069 19.385-13.491 33.576-5.5346 14.785-6.1531 30.332 9.4808 44.54 0.87534 10.748 6.21 22.215-8.4822 34.291-2.0822 3.1192-5.2137 22.595-8.0754 17.826-3.2382-16.797-2.0685-1.8663 13.679 5.7303 3.206 1.3804-6.7994 23.616-16.35 14.267-5.2277 13.942-5.398 28.694-6.508 42.825-13.278 8.6243-3.038 14.229 3.4173 2.7452 5.3382-5.5242 5.4319-17.934 12.783-16.379 17.875 6.6492 3.9694 30.705 13.894 18.654-1.9691-5.6481-20.554 24.354-13.427 35.896-16.378 11.589 3.0764 25.697-3.0891 34.961 6.2535 8.9111 0.11456 15.282-0.56462 2.4474 1.711-13.926 2.4521-28.146-3.3085-41.741-1.6489 1.4521 9.6204 20.348-3.6794 11.642 10.126 11.575 10.342 25.805-1.0182 38.795-1.0635 17.086-2.247 34.344-2.2186 51.5-3.5 6.2116-0.14624 31.208 1.228 23.443-6.2199-8.5395-0.78145-26.011-2.729-7.4427-5.2801 14.843-6.5632 30.186 3.158 45.137-1.992 5.8537-1.6833 16.169-6.7678 4.778-0.04527-7.1928 0.87338-15.437 10.854-2.415 7.0373 20.676 0.3971-9.6115 2.3497-15.5 5.5l-3 1z" fill="url(#m)" fill-rule="evenodd" stroke="#82481c" stroke-opacity=".24706" stroke-width="2.6747"/>
  <path d="m1927 463.36c-38.156-5.2286-70.34 18.746-107.12 24.109-24.964 7.0025-37.19 11.531-83.589 18.154 34.944 3.6278 70.378-6.0654 103.66-15.55 16.53 5.6719-49.04 25.352-11.494 26.276 11.965-6.2344 27.818-25.089 20.536 2.011 9.8637 23.646 18.895-29.814 32.145-3.2199 0.9439-15.579-8.4728-45.123 21.855-40.78-21.276 27.238 26.249-0.1926 24-11zm76 17c-12.94-28.884-49.548 10.771-68.103-0.96848 3.122 14.229 65.588-7.4122 26.297 12.615-28.819 12.56 38.251 2.4008 41.806-11.646zm-18 29c-19.365 10.107-47.651-11.103-60.313 5.8186 19.048 5.3775 48.812 8.0553 60.313-5.8186zm34 66c-7.3794-13.055-28.94-40.278-47.517-32.07 17.604 2.406 41.919 28.06 8.5098 14.11-38.879-16.946-77.97-32.331-120.18-21.639-40.306-10.98 20.753 14.028 34.64 2.6885 31.984-0.36317 64.775 21.503 88.58 38.443-16.253-31.16 18.351 12.459 26.61-4.7316 1.4485 4.2934 6.2545 5.2108 9.3553 3.1986zm-146 7c-3.9746-14.314-62.047-23.329-56.648-18.125 28.542 21.178-33.05-2.4043-43.352-2.875-42.098-10.863 27.233 10.459 38 17 28.451 5.1699 32.726-17.032 62 4zm69-10c-15.259 16.601-54.213-18.997-15-1 5.2352 1.7322 10.395-3.3857 15 1zm-200-7c-16.574 1.3555-54.138-3.1385-60.4 2.4806 8.0934-1.0145 47.418 9.209 64.447 12.045 10.447-8.6184-16.041-15.285-4.0467-14.525zm-51-53c-43.684-3.8222-87.102 2.3618-131-1-17.966-1.301-44.327 12.002-57.852 1.419 42.726-1.1486 84.831-9.3957 127.85-5.419 20.58-8.2302 40.804 0.78358 61 5zm-15 65c-12.691-10.062-106.76-16.836-79.829-11.489 12.964 2.6291 41.87 9.958 10.829 6.4885-43.948-7.0903-87.332-10.934-131.45-17.327-14.548-1.855 46.163 4.8502 56.974 17.574 17.457 3.1694 50.488-2.3529 60.125 7.0159-11.575-2.6357-64.765 6.6011-26.647 4.7376 18.603 2.4299 43.237 4.0516 47.625-5.875 20.155 2.1852 41.744-0.7649 62.375-1.125zm346-103c-7.177 11.296-13.176 34.142 12 24 18.3 5.787 16.008-32.676-6.4438-22.372l-5.5562-1.6275zm19 107c9.3256-8.8233-8.3544-31.223-10.781-14.86 7.6586 2.7908-12.117 25.536 10.781 14.86zm-531-114c-41.948 3.7504-84.679 2.3438-124 20-25.231 0.24024-57.375 46.047-17 46 9.0487-9.468-20.031-29.634 8.9427-25.395 10.008 27.04 13.976-23.485 31.313 1.824 24.775 10.843-18.869-16.099 7.3343-13.585 15.268-0.06788-3.9582 21.125 19.55 14.217-12.014 15.989-20.226 13.022 6.0819 11.418 29.068 4.3584-21.834-15.471 14.779-7.4779 19.377 18.289 71.537 28.198 79.941 37.718-46.348 12.321-76.824-32.533-121.94-26.718-21.895 8.0174-16.002-21.373-33.96-1.3049 8.4142 20.366 55.167 19.538 74.133 22.514 12.064-14.338 3.0973 20.85-15.172 7.7906-13.297-4.2289-51.616-11.377-49.657-4.1544 24.296-0.77311 81.692 5.9063 78.793 31.058-26.772-15.605-60.024-23.339-92.513-24.585-19.319-14.145-54.767-3.5595-64.622-20.069-10.611 24.257-12.004-5.1662-9.8322-14.462-11.95-5.7947-9.5755-16.155-31.168-13.788 0.3672-0.4266 38.374-12.155 44.757 4.1495 19.418 2.3827 25.668 11.612 35.243-10.15 27.323-26.786 72.62-33.995 110.49-37.183 16.236-0.00132 32.36 0.34688 48.511 2.1832zm272 112c-11.629-10.48-33.369-17.501-12.404-2.2927-4.3431 10.364 21.597 15.285 12.404 2.2927zm-157-48c-12.907 18.918-73.918 22.834-69.35 1.7066 25.24 9.9593 43.793-0.02552 69.35-1.7066zm-268 30c28.201-0.29331 82.272 13.635 84.909 17.673-4.6983 3.2252-63.831 9.4868-21.202-0.08696-21.629-3.734-41.787-15.074-63.707-17.586zm-26 13c-25.444-19.608-85.433-21.284-103.36-19.42 34.765 16.327 75.274 13.478 109.36 31.217-1.6604-4.1764-1.8362-8.7686-5.9917-11.797zm57.758 4.2385c-10.291-10.603-31.646-3.6891-8.1136 0.73661 2.2466 4.3353 8.6801 7.0979 8.1136-0.73661zm-156.27-76.368c-22.172 10.011-53.323-6.1493-73.539-4.2426-10.605 9.7188-28.596-9.9138-40.149 13.074-9.6538-8.3043 33.619-32.046 43.251-20.559 21.624 3.3965 46.901 3.6056 70.437 11.727zm38.184 79.196c-11.885-7.8383-21.624 6.8201-26.87-4.2426-13.7 20.94-23.648-6.3854-27.577 3.5355-19.206 9.7182-41.144-7.2252-53.486-9.3791 21.186 22.104 54.454 15.853 83.184 17.157 8.7909 0.65119 18.41-0.1202 24.749-7.071zm-115.97-17.678c-20.088-2.1423-33.608 3.0659-14.629 19.145 4.2494-10.365 30.406-20.022 27.438-17.739-12.051-2.0194-5.1482 2.2562-12.809-1.4065zm-41.012 13.435c-15.103-31.183-57.989 4.1119-69.171-16.879-25.751 2.512 5.9119 2.7032-16.287 16.739-2.5803 15.593 34.006-2.5256 42.061-0.63837 1.3509-14.054 34.201-1.2127 43.397 0.77799z" fill="#7c869a" fill-opacity=".81622" fill-rule="evenodd" stroke="#b5c4e7" stroke-linecap="round" stroke-linejoin="round" stroke-opacity=".41622" stroke-width="1.8388"/>
  <path d="m1097.9 269.86c97.958-156.2 284.8-247.62 467.93-236.8 165.44 6.7591 326.28 96.142 414.83 236.8-30.294 10.531-61.178-4.4454-92.678 0.43966-30.988 3.2187-60.392-0.74998-90.062-2.4963-19.347 9.598-49.835 13.151-59.007-10.455-19.208 20.051-55.628 15.999-80.488 11.868-23.917-4.3039-38.521 24.596-72.95 0.89886-25.774-12.839-61.002 2.5743-90.645 1.5983-19.542 10.691-44.101-17.628-66.904 2.553-27.674 16.291-60.979-20.905-85.753 2.6475-28.009 8.1134-56.06-20.436-86.121-5.6553-30.188-9.7387-58.731 11.878-87.906 0.45483-23.923-14.789-50.718 23.074-70.252-1.8539z" fill="url(#l)"/>
  <path d="m1980.7 781.06c-96.788 154.26-280.3 245.52-461.32 237.08-159.66-4.684-316.05-85.836-408.01-217.08 31.575-8.0369 56.389 11.971 85.151 6.794 26.571-11.76 57.061-7.3209 86.152-5.4429 31.557 1.0978 157.81-11.069 196.68-0.99195 28.423 1.713 58.123 4.7185 84.898-3.6555 30.303 2.9899 60.841 6.886 90.99-0.51189 22.011-8.5112 40.912-16.503 64.867-6.4959 22.581-17.515 38.608 19.998 58.45 1.3609 15.989 20.822 19.724-18.64 38.755 0.02516 27.89-4.3014 60.215 8.1394 84.853-7.0711 6.499 14.853 12.75 11.485 24.742 1.1523 17.283 2.227 40.757 11.187 53.794-5.1682z" fill="url(#k)"/>
  <path d="m1111.2 801.96c-16.052-23.092-26.713-40.411-40.341-67.546 19.061-1.9425 38.879-5.4301 58.732-5.7194s39.74 2.6197 58.941 2.1565c8.2882-0.30631 16.583-4.116 24.881-4.3592s16.601 3.0801 24.904 2.8978 16.607-3.1633 24.909-3.2871 16.603 2.6096 24.898 2.5422c11.011 0.74431 24.868-3.1504 35.904-2.9753s19.253 4.4202 30.297 4.4735 26.329-3.378 37.362-2.9993 17.812 4.5676 28.815 5.7191c34.71 5.5726 69.343-1.3364 103.99-2.2342 18.761 0.88474 37.542-0.17012 56.324 0.74575s37.565 3.8025 56.328 4.0849c36.81-5.0476 68.71-8.1212 105.84-7.6591 30.288 3.7139 64.854 19.011 96.074 17.457 39.121 5.5182 72.26-27.537 111.36-18.078 9.1176 2.8444 46.566 3.4297 58.307 4.6959-4.0568 8.1531-8.1667 16.511-12.512 24.174-27.631-15.759-58.248 12-82.222 7.7478 17.285-25.404-23.206 3.4608-35.87-8.9809-26.494 4.392-55.012 24.143-82.019 13.839-21.153-10.124-48.125 8.7622-70.811-2.0403-18.721 16.792-38.909 22.492-64.362 31.121-33.505 11.53-64.279 2.9707-94.887 2.7417-31.884 2.3221-38.95 8.7493-71.122 6.3877-31.176-5.9697-77.891-8.3912-109.52-6.4754-30.895-0.04155-60.619 1.6209-90.755 5.0495-57.538-4.143-72.454-2.9064-107.22 5.7642-25.565-1.889-53.674-13.151-76.225-9.2426z" fill="url(#j)" fill-rule="evenodd"/>
  <path d="m1125.7 780.83c-2.8693-1.9605-2.7377-6.6171-3.5356-10.607-1.0413-5.2068 1.2587-4.1957 2.1214-7.0711 0.499-1.6635 8.5682-1.2104 10.607-1.4142 5.0931-0.50931 5.4376 1.9773 7.7781 2.8284 2.7561 1.0022 4.0354 3.2033 6.364 4.9498 3.1637 2.3728 4.3453 3.0417 7.0711 4.9498 3.9622 2.7736-0.6201 6.2006-0.7072 7.0711-0.1374 1.3748-8.6299 0.70711-9.8994 0.70711-2.7994 0-6.2338-0.70711-9.8995-0.70711-4.6433 0-5.302-0.24735-9.8995-0.7071zm33.234-14.849c-0.0277 0 1.2712 8.469 1.4142 9.8995 0.416 4.1604 3.2685 3.23 6.364 4.9498 2.7149 1.5083 7.3473 0.7071 10.607 0.7071 6.9735 0 2.9806-3.3532 5.6568-6.364 1.6344-1.8386-4.6606-6.6581-4.9497-7.0711-0.6517-0.93093-8.0205-1.297-9.1924-1.4142-3.5117-0.35116-5.5813-0.70711-9.8995-0.70711zm27.577-4.2426c-0.8468-0.08468 0.5708 8.5361 0.7072 9.8995 0.3685 3.6852 3.5024 4.6089 5.6568 7.0711 2.8715 3.2817 10.752 2.1213 14.849 2.1213 3.9398 0 5.2895-1.9235 7.7781-2.8284 5.3767-1.9552-2.0869-5.5651-2.1213-5.6569-0.8303-2.2142-6.9247-1.8946-9.1924-2.1213-3.6934-0.36934-5.871-3.1831-7.7782-4.2426-3.1628-1.7572-5.1119-2.3276-9.8995-4.2426zm36.062-1.4142c-2.6785-1.4881 5.6568 2.357 8.4853 3.5355 5.8917 2.4549 1.7219-0.98398 4.9497-2.8284 2.0567-1.1752 0.4714-4.714 0.7071-7.0711 0.2493-2.4931 3.2999 3.7712 4.9498 5.6568 2.5438 2.9072 4.2836 2.1377 7.7781 3.5355 2.8298 1.1319 6.2411-1.448 8.4853-2.1213 2.9952-0.89855 6.487-0.70711 9.8995-0.70711 5.2483 0 5.3358-1.9403 7.7782-2.8284 3.5057-1.2748 1.4506 1.2089 4.2426 3.5355 2.6499 2.2082 5.0267-4.3983 5.6569-4.9498 1.357-1.1874 6.5156 2.3693 7.7782 2.8284 4.951 1.8004 2.6827-2.2994 4.9497-4.2426 2.3538-2.0176 6.1524-0.80622 9.1924-1.4142 3.5935-0.7187 7.1355 0.43071 9.8995 0.70711 2.2465 0.22464 6.0182 2.8315 7.7782 3.5355 1.578 0.63122 6.4728-1.1423 9.1924-1.4142 4.7505-0.47505 5.7691-1.0943 9.1923-2.1213 2.4763-0.74288 4.8168-2.4084 7.0711-3.5355 3.6377-1.8188 4.6046-0.63471 7.7782 0 2.9783 0.59565 4.5624 1.8637 7.7782 2.8284 3.1554 0.94664 6.1757 1.1126 9.1924 1.4142 4.7708 0.47708 5.1461-1.8713 7.7781-2.8284 2.8149-1.0236 4.5438-2.2719 7.0711-3.5355 2.8902-1.4451 4.0804-2.7202 6.364-4.2426 4.7408-3.1606-0.6497-5.1971-0.7072-5.6568-0.3268-2.6149-4.714 2.357-7.071 3.5355-2.4876 1.2438-4.3884 2.9256-6.364 4.2426-3.227 2.1514-4.8081 1.7253-8.4853 2.8284-3.5732 1.072-7.6996-1.1157-9.1923-1.4142-2.7578-0.55156-5.1519-1.0102-9.1924-1.4142-4.2267-0.42266-6.5476-0.33519-9.8995 0-2.0491 0.20491-6.0074 2.5518-7.7782 3.5355-3.1086 1.727-5.105 2.3204-7.7782 3.5355-3.5136 1.5971-6.6435-1.5688-8.4853-2.1213-3.23-0.969-4.5804-1.3404-8.4852-2.1213-3.2323-0.64645-7.2981 0-10.607 0-4.5059 0-4.7744-0.33601-8.4853-0.70711-4.6843-0.46843-3.2363 1.4384-6.364 2.8284-2.8822 1.281-3.936 1.6664-8.4853 2.1213-2.8628 0.28629-4.7693-3.2235-7.071-4.9498-3.1815-2.3861-7.6364 1.8666-8.4853 2.1213-1.3989 0.41966-3.8078 2.5566-7.0711 3.5355-2.5741 0.77222-5.1429-1.5943-7.7782-2.1213-0.9634-0.19268-5.5475 2.7738-7.071 3.5355-2.357 1.1785-4.7141-2.357-7.0711-3.5355-1.5601-0.78008-5.9227 2.9614-7.0711 3.5355-3.3301 1.6651-1.3792 1.3793-4.9497 4.9498zm203.65-10.607c-2.5386 1.2693-4.2426 3.7712-6.3639 5.6568-4.7342 4.2082 0 2.4007 0 4.9498 0 2.7588 5.1854-1.8856 7.7782-2.8284 1.6126-0.58641 0.9428-3.2998 1.4142-4.9497 0.3663-1.282-1.8857-1.8856-2.8285-2.8284zm-149.91 40.305c0.8191-2.8667-5.6568 1.8856-8.4853 2.8284-3.3004 1.1002-5.3696-2.6848-7.071-3.5355-1.7558-0.87788 2.0375-8.206 2.1213-8.4853 0.6244-2.0814 3.2998 2.8284 4.9497 4.2426 1.433 1.2282 7.1329 4.1984 8.4853 4.9497zm45.255-8.4853c0.8707 0.74631 6.8359 2.6292 9.1924 3.5355 4.9713 1.912 4.4214 3.0949 7.0711 4.9497 3.1545 2.2082 7.0245-0.41494 8.4853-0.7071 1.9059-0.38118-0.9428-3.7712-1.4142-5.6569-0.6884-2.7535-5.7022-0.15048-8.4853-0.7071-5.3953-1.079-0.6012-4.8094-0.7071-5.6569-0.0663-0.52996 8.1663-2.7327 8.4853-2.8284 1.9121-0.57366 4.8074-2.6708 6.3639-3.5355 4.9311-2.7395 1.717-1.717 2.8284-2.8284 1.675-1.675-4.714-0.4714-7.071-0.7071-2.4931-0.24931-3.7713 3.2998-5.6569 4.9497-2.078 1.8183-5.2014 1.4646-8.4853 2.1213-4.1179 0.82359-3.9854 2.657-6.3639 4.2426l-4.2427 2.8284zm57.983-9.8995c-2.7873 1.8582 5.1854-4.2426 7.7782-6.364 2.7553-2.2544 3.2628-2.1752 6.3639-4.2426 1.7759-1.1839-0.4714 4.2426-0.7071 6.364-0.0218 0.19616-6.2345 4.1564-6.3639 4.2426-2.6371 1.758-3.8915 0-7.0711 0zm14.849-20.506c-8.0936 5.3958 3.1798 4.4421 4.2427 5.6569 1.3969 1.5964 4.2426 0 6.3639 0 2.3214 0 4.2427 1.8856 6.364 2.8284 2.2487 0.99943-1.4142-4.714-2.1213-7.0711-0.6244-2.0814-4.2427 0.9428-6.364 1.4142-2.9104 0.64676-5.5617-3.4131-8.4853-2.8284zm231.22-14.849c-3.1898 0.70885-5.1599 2.3454-7.7781 3.5355-1.9674 0.89428-0.105 8.1428 0 9.1924 0.2493 2.4931 3.2998-3.7712 4.9497-5.6568 1.9941-2.279 1.8618-4.6546 2.8284-7.0711zm100.41-4.2426c2.0882-2.3865-4.2426 4.714-6.364 7.0711-2.0739 2.3043-0.8062 6.1524-1.4142 9.1924-0.3949 1.9747 3.7713-1.4142 5.6569-2.1213 1.9731-0.73993 2.4691-4.9383 3.5355-7.0711 1.0975-2.195-1.0664-5.332-1.4142-7.0711zm71.418 7.0711c1.3333-2.6667-5.6569 1.8856-8.4853 2.8284-3.9953 1.3318-1.9634 3.9268-3.5355 7.0711-2.7848 5.5696 0.4817 0.12042 2.8284 0.70711 6.0141 1.5035 4.9752-2.4876 7.0711-3.5355 2.627-1.3135 1.3058-4.3527 2.1213-7.0711zm-27.577 0c2.6077-1.3038-5.6568 1.4142-8.4853 2.1213-4.1405 1.0351-4.2194 2.1097-7.071 3.5355-2.2411 1.1205-3.2999 3.7712-4.9498 5.6569-1.4309 1.6354 0.9428-4.2426 1.4142-6.364 0.3552-1.5984 4.6889-4.1027 5.6569-4.9497 2.8165-2.4644 3.9564-1.6819 7.7782-2.8284 3.1213-0.93639 3.0542 1.5271 5.6568 2.8284zm-464.57 23.335c3.3939-1.0182-7.0808 0.35453-10.607 0.70711-4.8289 0.48288-5.8422 2.1244-7.7782 2.8284-4.298 1.5629 5.2127 2.7133 6.364 2.8284 4.0985 0.40985 6.8081-0.93736 9.1924-1.4142 1.0315-0.20632 2.7433-4.8008 2.8284-4.9498zm140.01-13.435c2.1927-0.43853-1.4142 4.2426-2.1213 6.364-0.8333 2.5 5.1855-0.94281 7.7782-1.4142 2.5084-0.45607 2.8284-4.2426 4.2426-6.364 2.5679-3.8519-6.1896 0-6.3639 0-1.2693 0-2.3571 0.94281-3.5356 1.4142zm82.024-7.7782c-3.1118 0 5.6445 5.6445 5.6569 5.6568 3.1713 3.1713 7.6976-2.7991 7.7781-2.8284 0.7661-0.27857 4.5024-5.1456 4.9498-5.6568 0.9938-1.1358 2.357-1.8856 3.5355-2.8284 2.2766-1.8213-5.6927 1.2836-8.4853 2.1213-3.1265 0.93797-6.1022 0.32738-9.8995 0.70711-1.5017 0.15017-2.357 1.8856-3.5355 2.8284zm176.07 9.8995c-1.2375 0.12375-7.0972 0.70711-10.607 0.70711-3.1785 0-5.0964 1.8532-7.7782 2.8284-2.1553 0.78374-4.2242 3.6962-5.6568 4.9497-2.0594 1.8019-2.1063 5.371-2.8285 7.7782-0.9623 3.2078-1.1584 5.2755-2.1213 8.4853-1.9243 6.4145-6.3391-3.5169-6.3639-3.5355-2.2071-1.6553 2.0356-5.1357 2.8284-7.7782 0.829-2.7634 2.324-4.6481 3.5355-7.0711 1.4947-2.9894 3.6165-3.1644 5.6569-4.9497 2.3129-2.0238 5.9131-1.0863 9.1924-1.4142 3.2132-0.32132 6.0836-0.32552 9.8994-0.7071 1.3128-0.13128 2.5088 0.41812 4.2427 0.7071z" fill="url(#i)" fill-rule="evenodd" stroke="url(#h)" stroke-opacity=".6" stroke-width="2.2289"/>
  <path d="m1331.5 802.75c2.4409 3.7765-2.109 6.327-2.8284 8.4853-0.6754 2.0262-4.3983 3.8485-5.6568 4.9497-1.6698 1.461-4.7186 3.1457-6.364 4.2426-2.7334 1.8223-7.1449 0.27546-9.8995 0-2.6392-0.26391-4.8087-3.2058-6.364-4.2426-3.3089-2.206-2.3142-2.6359-2.8284-7.7782-0.2916-2.9158 4.8863-3.2575 6.364-4.2426 2.2116-1.4744 8.0047 0.51763 9.8995 0.70711 3.8946 0.38946 5.6645 1.7001 8.4852 2.8284 3.059 1.2236 0 6.984 0 7.7782 0 2.5495-4.2426-2.8284-6.3639-4.2426-2.1374-1.4249-5.1448-1.8708-7.7782-2.8284-5.5877-2.0319-3.8496 3.3684-5.6568 4.9498-1.8857 1.6499 3.7712 3.2998 5.6568 4.9497 1.761 1.5408 8.1497 0 9.1924 0 3.8959 0 3.1481-3.5978 4.9497-5.6568l4.9498-5.6568c1.7224-1.9684 1.362-1.362 4.2426-4.2426zm73.539 4.2426c1.8755-2.1433-5.1854 2.357-7.7781 3.5355-2.6542 1.2064 1.2835 5.6928 2.1213 8.4853 0.8802 2.9342 3.8979 3.4107 5.6568 4.9498 1.2316 1.0776 6.2297-3.1148 7.0711-3.5355 3.2536-1.6268 4.4686-1.318 8.4853-2.1213 3.5552-0.71104 6.9271-1.4417 9.1924-2.1213 4.1165-1.235-0.6289-6.2886-0.7071-7.0711-0.2499-2.4983 0-6.1257 0-7.7782 0-2.4608 4.714 1.4142 7.071 2.1213 2.9695 0.89083 0.8063 6.1524 1.4142 9.1924 0.9019 4.509-1.4085 6.1094-2.1213 8.4853-0.2581 0.86037-7.7474 1.2697-9.1924 1.4142-2.9319 0.2932 3.7824 2.1613 4.9498 2.8284 6.0168 3.4382-0.3045 1.8271-0.7071 4.2426-0.0414 0.24825-9.6864 0-10.607 0-3.9557 0-5.9782-0.31498-9.8995-0.7071-2.9415-0.29415-6.5017-1.5262-8.4853-2.1213-2.2659-0.67978-4.2187-3.6914-5.6569-4.9498l-5.6568-4.9498c-2.6611-2.3284-1.7903-4.3176-2.8284-7.7782-0.8247-2.7488 4.6719-4.088 5.6568-4.9498 1.9135-1.6743 7.2982-0.70711 9.8995-0.70711 4.0661 0-0.2466-0.41103 2.1213 3.5355zm241.83-7.7782c3.3748 0-6.5996 1.4142-9.8994 2.1213-4.0114 0.85959-5.5664 1.2456-8.4853 2.1213-2.8355 0.85064-4.8875 2.4437-7.0711 3.5355-6.0234 3.0117 0 3.4688 0 3.5355 0 2.6352 4.7141-2.357 7.0711-3.5355 2.3472-1.1736 6.4748-1.5182 8.4853-2.1213 3.476-1.0428 6.2563-0.34279 9.8994-0.70711 3.373-0.33729 5.1149-2.0294 7.7782-2.8284 6.0343-1.8103 2.7988 0.69969 2.8285 0.70711 2.4627 0.6157-4.7141 1.8856-7.0711 2.8284-2.8115 1.1246-6.0898 1.6422-8.4853 2.1213-3.5612 0.71224-5.4709 0.66991-9.1924 1.4142-1.5821 0.31642-5.4046 2.7023-7.0711 3.5355-2.8376 1.4188-3.7835 3.3106-5.6568 4.9498-1.9187 1.6789-2.8284 4.2426-4.2426 6.364l-4.2427 6.364c-0.3618 0.54269 6.4505-1.9352 7.0711-2.1213 2.9192-0.87576 7.5324 0 10.607 0 3.4888 0 5.7152 1.0782 9.1924 2.1213 2.5241 0.75723 5.156 1.152 7.7781 1.4142 2.5369 0.25368-2.8284-4.2426-4.2426-6.364-1.5477-2.3215 4.8466-4.2407 5.6569-4.9498 2.4288-2.1253 4.4305-2.2153 7.071-3.5355 2.7426-1.3713 5.9679-1.6178 8.4853-2.1213 3.7846-0.75691 7.5869 0.95169 9.8995 1.4142 1.8051 0.36103-2.8284 2.357-4.2426 3.5355-1.805 1.5042-8.3083-0.54798-9.8995-0.70711-2.5312-0.25311-5.5556 2.0202-7.7782 2.8284-4.185 1.5218-1.7932 3.5863-3.5355 7.0711-0.4497 0.89923 5.9013 3.9342 6.3639 4.2426 1.6307 1.0871-7.4007 2.0129-8.4853 2.1213-3.4545 0.34545-7.1317 0-10.607 0-2.7453 0-6.9779-0.22145-9.1924 0-3.845 0.3845-6.6564 0.3828-9.8994 0.70711-3.522 0.35219-6.1549-0.33265-9.8995-0.70711-3.5339-0.35338-5.7753-1.7444-8.4853-2.8284-3.1998-1.2799-4.5984-2.2992-7.0711-3.5355-2.1885-1.0943-3.6618-4.6468-4.9497-6.364-2.3893-3.1857-3.3493-2.2329-6.364-4.2426-1.8502-1.2334-3.7712 2.357-5.6569 3.5355-1.8427 1.1517 0.9429 4.2426 1.4143 6.364 0.5984 2.6931-5.1855-1.8856-7.7782-2.8284-1.7859-0.64942-0.4714-3.7712-0.7071-5.6569-0.3846-3.0762-6.1076 1.1057-9.1924 1.4142-1.654 0.1654-0.052-8.6722 0-9.1924 0.121-1.2097 4.956-4.3365 5.6568-4.9498 2.1395-1.872 5.4567-2.2458 7.7782-3.5355 2.5574-1.4208 6.5846-1.1534 9.1924-1.4142 3.4545-0.34545 7.1317 0 10.607 0h10.607c4.3406 0 5.0933 1.8521 7.7782 2.8284 4.5328 1.6483 1.1163 5.0236 1.4142 6.364 0.5985 2.6931-5.1855-1.8856-7.7782-2.8284-2.4438-0.88865-8.0566-0.52282-9.8995-0.7071-3.975-0.39751-6.3413-0.35129-9.8995-0.70711-5.3464-0.53464-5.7446 2.089-7.7781 2.8284-2.4766 0.90057 4.714 2.357 7.071 3.5355 2.6468 1.3234 4.6901 1.7055 7.7782 2.8284 1.0682 0.38845 5.9041-2.952 7.0711-3.5355 1.3499-0.67495 1.8856 2.357 2.8284 3.5355 1.5652 1.9565-3.7712 3.2998-5.6569 4.9497-2.6296 2.301 2.6033 5.6726 3.5356 7.0711 2.0879 3.1318 7.0743-1.2862 7.7782-1.4142 2.9753-0.54098 3.7864-3.3131 5.6568-4.9498 2.1676-1.8966 1.4142-5.894 1.4142-9.1924 0-2.7993 0.7071-6.2338 0.7071-9.8995 0-3.6794 4.9199-2.2568 7.7782-2.8284 3.6815-0.7363 5.956-0.31275 9.8995-0.70711 3.4545-0.34544 7.1317 0 10.607 0 1.9003 0 3.7712 0.47141 5.6568 0.70711zm130.11-2.1213c3.1623 0-5.6569 2.8284-8.4853 4.2426-3.0023 1.5012-4.2941 2.8627-6.3639 4.2426-1.8224 1.2149-4.1178 3.603-5.6569 4.9498-2.3757 2.0787-3.1948 3.6512-4.9497 5.6568-2.1077 2.4088-3.5776 2.385-6.364 4.2426-1.0561 0.70408-2.357-0.9428-3.5355-1.4142-2.3264-0.93054 3.7712-3.2998 5.6568-4.9498 4.0318-3.5278-0.5833-4.6664-0.7071-5.6568-0.0162-0.12969-5.8643 3.9095-6.364 4.2426l-6.3639 4.2426c-4.2161 2.8107-3.3035 0.82587-5.6569 1.4142-1.9537 0.48843 1.4142-3.7712 2.1213-5.6568 0.8763-2.3368 5.602-2.1756 7.7782-2.8284 0.9309-0.27925-1.8856-0.4714-2.8284-0.7071-1.0823-0.27058-6.6907 1.7624-8.4853 2.1213-2.8975 0.5795-1.2783 6.4187-1.4142 7.7782-0.083 0.82953 7.0223 4.2156 7.0711 4.2426 2.5215 1.4008 0 5.1294 0 6.364 0 2.6034 5.2253-0.19653 7.7781-0.7071 3.0135-0.6027 5.0295 3.5754 7.7782 4.9497 2.241 1.1205 3.7713-3.2998 5.6569-4.9497 3.8528-3.3712 5.7597 3.8398 6.3639 4.2426 2.6878 1.7918-4.8911 5.5898-4.9497 5.6568-1.5135 1.7297-7.5981 0.70711-9.8995 0.70711-1.1319 0-5.4998-1.6499-7.0711-2.1213-1.4357-0.43073-7.7109-0.55223-8.4853-0.70711-2.8183-0.56367-3.566-4.0755-4.9497-5.6568-2.574-2.9417-2.532-3.992-4.2426-7.0711-1.3176-2.3716 0.5592-8.4209 0.7071-9.8995 0.161-1.6109 0.705-6.345 0.7071-6.364 0.2815-2.5339-2.8285 4.2426-4.2427 6.364-1.4404 2.1606 0.5611 8.4391 0.7071 9.8995 0.7661 7.6602-2.8547 2.4469-4.9497 4.2426-0.704 0.60345-1.9008-7.3828-2.1213-8.4853-0.9188-4.5939 1.4563-6.2687 2.1213-8.4853 0.8658-2.8862 3.9344-3.4426 5.6568-4.9498 2.0925-1.8309 6.456-1.1406 9.1924-1.4142 3.0565-0.30566 6.1114-1.4091 8.4853-2.1213 2.5822-0.77467 6.3435-0.70711 9.8995-0.70711 7.4918 0 3.389 3.389 4.2426 4.2426 1.0672 1.0672 1.8857 2.357 2.8285 3.5355 1.5652 1.9565 3.2998-3.7712 4.9497-5.6568 2.1796-2.4909 3.5234-3.0829 5.6569-4.9498 2.1634-1.893 4.9367-2.4684 7.071-3.5355 8.4099-4.205 2.2551 0.56376 5.6569 1.4142zm168.29 16.263c2.7406-1.3703-5.6569 2.357-8.4853 3.5355-2.9081 1.2117-4.4465 2.2233-7.071 3.5355-2.4187 1.2093-3.0089 4.5133-4.2427 6.364-1.4606 2.1909-2.3688 4.7377-3.5355 7.0711-1.5012 3.0024-2.8627 4.2941-4.2427 6.364l-4.2426 6.364c-0.0114 0.01712 6.2681-4.1787 6.364-4.2426 2.2767-1.5178 3.4678-3.9633 4.9497-5.6568l4.9498-5.6568 4.9497-5.6569c1.4267-1.6305 5.0294-2.5147 7.0711-3.5355 1.5283-0.76416 2.6561-6.2869 3.5355-8.4853zm-103.94-12.728c2.9288-1.4644-5.6568 3.2998-8.4853 4.9497-2.2451 1.3096-4.845 2.4225-7.071 3.5355-2.3236 1.1618-5.9073 2.1481-7.7782 2.8284-3.4656 1.2602-6.888-0.95333-9.1924-1.4142-4.0722-0.81443-6.5701 0.88976-9.1924 1.4142-1.6343 0.32686-0.4714 3.2998-0.7071 4.9498-0.4679 3.275 6.6077-0.37792 9.8995-0.70711 3.7723-0.37722 5.6847 1.0336 7.7782 1.4142 3.418 0.62145 4.8935 0 7.7781 0 1.85 0 4.1409-5.3239 4.9498-6.364 1.1062-1.4222 6.6933-1.217 7.7782-1.4142 4.1714-0.75844 3.3298-4.6282 4.2426-9.1924zm33.941 5.6568c1.5587-0.2834 6.3058-3.1529 8.4853-4.2426 2.9723-1.4861 0.0741 5.6231 0 6.364-0.2622 2.6222 4.7141-2.357 7.0711-3.5355l4.2426-2.1213c2.4676-1.2338-1.8856 5.1854-2.8284 7.7782-0.1349 0.37107-8.6456 1.3048-9.1924 1.4142-1.7948 0.35897-3.4811 5.2216-4.2426 6.364l-4.2427 6.364c-3.0206 4.531-2.7294 1.2131-6.3639 2.8284-2.1647 0.96205-0.4714-4.714-0.7071-7.0711-0.6704-6.7037-1.1191-0.47961-4.9498-2.1213-2.4221-1.0381-4.547 2.7783-7.0711 3.5355-6.7459 2.0238-2.8208-1.7631-5.6568-3.5355-4.3125-2.6953-1.2665 0.15832-5.6569 0.70711-0.7356 0.09196-6.582 1.9746-7.071 2.1213-2.7186 0.81556 0.1505-5.7022 0.7071-8.4853 0.4503-2.2516 6.3044-1.9032 8.4853-2.1213 3.7804-0.37804 6.136 0.33076 9.8995 0.70711 3.4795 0.34795 3.9414-3.4488 5.6568-4.9498 1.5338-1.3421 8.0676 0.52392 9.8995 0.70711 1.1959 0.11958 2.357-0.47141 3.5355-0.70711z" fill="#929292" fill-opacity=".32432" fill-rule="evenodd" stroke="#8b8b8b" stroke-opacity=".12432" stroke-width=".44578"/>
  <path d="m1224.4 820.67c-0.3111 13.129 24.449 20.76 34.205 13.903 5.9394-18.732-29.078-26.544-34.205-13.903zm116.94 14.61c6.4243 5.2109 34.788 4.7914 32.188-8.6575-9.3794-15.472-42.988-5.7596-32.188 8.6575zm117.01 0.36947c14.069 4.6833 39.68-8.9564 15.309-18.795-35.349-8.1207-32.495 17.933-15.309 18.795zm207.55-13.097c-8.0442-8.155-25.692 2.3576-10.814 9.4087 5.9057-0.43759 12.087-2.3283 10.814-9.4087z" fill="#acacac" fill-opacity=".91351" fill-rule="evenodd"/>
  <path d="m1493.4 783.66c5.0402 7.7809 26.018-1.4106 23.334-7.0711-4.6903-9.8928-27.886 0.04508-23.334 7.0711zm87.062-3.4392c2.9608 4.0591 19.2 5.4617 18.675-7.1656-3.2008-4.6781-19.416 2.9692-18.675 7.1656z" fill="none" stroke="#626262" stroke-opacity=".52432" stroke-width="2.3961"/>
  <path d="m1329.1 223.22c5.0402 7.7809 26.018-1.4106 23.334-7.0711-4.6903-9.8928-27.886 0.04508-23.334 7.0711z" fill="#beb5b1" fill-opacity=".75676" fill-rule="evenodd" stroke="#505050" stroke-opacity=".71351" stroke-width="2.3961"/>
  <path d="m1462.8 184.28c2.3002 8.9808 25.113 6.9477 24.372 0.7273-1.296-10.871-26.448-8.8368-24.372-0.7273z" fill="#b5aca8" fill-opacity=".50811" fill-rule="evenodd" stroke="#505050" stroke-opacity=".71351" stroke-width="2.3961"/>
  <path d="m1487 95.153c4.1955 6.8604 21.658 1.877 19.424-2.9999-3.9043-8.5234-23.212-3.1949-19.424 2.9999z" fill="#c0bbb8" fill-opacity=".24324" fill-rule="evenodd" stroke="#434343" stroke-opacity=".71351" stroke-width="1.9634"/>
  <path d="m1299 198.86c7.8284 5.7014 25.142-10.719 20.416-15.22-8.2589-7.8667-27.485 10.071-20.416 15.22z" fill="none" stroke="#494949" stroke-opacity=".71351" stroke-width="1.8834"/>
  <path d="m1593 224.35c2.8139 11.291 28.19 7.9993 27.191 0.15197-1.7468-13.715-29.732-10.347-27.191-0.15197z" fill="#b2afa8" fill-rule="evenodd"/>
  <path d="m1447.2 138.96c3.8046 6.6734 19.989 0.64091 17.976-4.1464-3.5183-8.3667-21.412-1.8796-17.976 4.1464z" fill="#a7a49e" fill-rule="evenodd"/>
  <path d="m1382.6 152.5c5.3466 7.0276 20.942-2.7165 17.852-7.8816-5.4003-9.027-22.68 1.5358-17.852 7.8816z" fill="#c0bbb8" fill-opacity=".24324" fill-rule="evenodd" stroke="#434343" stroke-opacity=".71351" stroke-width="2.4964"/>
  <path d="m1375 103.58c4.7211 2.4128 13.886-5.7064 10.99-7.654-5.0622-3.4038-15.253 5.4752-10.99 7.654z" fill="#c0bbb8" fill-opacity=".16216" fill-rule="evenodd" stroke="#434343" stroke-opacity=".71351" stroke-width="1.5263"/>
  <path d="m1391.6 227.88c3.864-0.04375 5.4928 4.7435 7.0711 6.364 2.5388 2.2849 4.0286 2.5524 7.0711 4.2426 3.3041 1.8356 4.7135 2.3097 7.7782 3.5355 1.2389 0.4956 5.8614 0.19168 7.7781 0 5.9605-0.59605 0.966-1.127 4.2427-4.9498 1.5304-1.7855 3.7855-4.867 4.9497-6.364 1.5087-1.9397 6.8873-1.8201 9.8995-2.1213 6.3101-0.631 2.2088 3.8653 2.8284 4.9498 1.5602 2.7303-6.1803 1.2177-9.1923 2.1213-2.4533 0.73597-2.6303 5.2606-3.5356 7.0711-2.729 5.4581 0.0789 0.15783 2.1213 4.2426 1.6685 3.3369 6.4073-1.9222 7.0711-2.1213 5.5323-1.6597 3.4561 1.536 6.364 2.8284 1.1995 0.53314-5.0028 3.1267-5.6569 3.5355-2.8054 1.7534 6.6077-0.37793 9.8995-0.70711 5.5532-0.55531 3.3969-2.2646 6.364-4.2426 4.1846-2.7897 0.5069 0.14485 4.9497 1.4142 3.0015 0.85756 5.3954-2.6977 7.0711-3.5355 2.2286-1.1143 8.0493 0 10.607 0 1.7159 0-0.9428-3.2998-1.4142-4.9498-0.1723-0.60293-5.951-4.64-6.364-4.9497-4.9501-3.7126-3.4813 2.9839-4.9497 4.2426-3.5937 3.0803-2.842 0.63155-6.364 1.4142-2.1213 0.47141 0.9428-4.2426 1.4142-6.364 1.3161-5.9226-0.3869-1.3542-1.4142-4.9498-0.7579-2.6527-5.1854 1.8856-7.7782 2.8284-6.0721 2.208-2.8562-1.0711-5.6568-2.1213-2.5832-0.96869 5.1357-2.0357 7.7781-2.8284 3.2077-0.96229 5.1929-1.0143 9.1924-1.4142 3.603-0.3603 5.3427 1.9428 7.7782 2.8284 4.5928 1.6701 4.4114-1.3234 7.0711-2.1213 2.0814-0.62443 2.5498-4.8284 4.9497-4.2426 2.2508 0.78502-2.357 4.714-3.5355 7.0711-1.4326 2.8653 6.0088-1.924 6.364-2.1213 2.6456-1.4698 5.1669-1.0117 9.1923-1.4142 1.3344-0.13344 6.0088 3.6524 7.0711 4.2426 3.4874 1.9374 3.4065 3.4065 5.6569 5.6568 2.1992 2.1992 2.7446 4.117 4.2426 6.364 1.6367 2.4551 1.0246 5.2958 1.4142 9.1924 0.2622 2.6222-5.2541-0.65698-7.7782-1.4142-2.5315-0.75946-2.5761-5.1523-3.5355-7.0711l-3.5355-7.0711c-1.5955-3.1909-2.2674-6.4011-4.2427-6.614-2.365 0.20249 1.4142 4.964 2.1214 7.3211 1.8563 6.1878-4.9321 2.8183-4.9498 2.8284-2.288 1.3074-2.357-4.714-3.5355-7.0711-2.3742-4.7484-4.948 4.2412-4.9498 4.2426-0.2818 0.2416 5.4529 4.7713 5.6569 4.9498 2.0506 1.7943 5.1041 2.552 7.071 3.5355 4.2809 2.1404 1.9596 2.9393 4.2427 6.364 0.3184 0.47759-6.8212 4.1038-7.0711 4.2426-3.1117 1.7287-6.9876-0.55734-8.4853-0.7071-0.8011-0.08012 6.0629-4.0419 6.364-4.2426 2.1926-1.4618-5.156-1.6764-7.7782-1.4142-1.8093 0.18094-5.599 2.7995-7.071 3.5355-3.0438 1.5219-4.6276 1.8832-7.7782 2.8284-0.5855 0.17566-7.7065-1.3363-8.4853-1.4142-0.9554-0.09554-5.9283 2.2735-7.7782 2.8284-3.7239 1.1172-7.3615-1.048-9.1924-1.4142-3.3239-0.66479-5.8202-1.5883-8.4852-2.1213-2.1893-0.43785-5.0805-2.5402-7.0711-3.5355-2.9071-1.4536-4.7379-1.9164-7.7782-2.8284-3.0121-0.90364-5.1601-1.8764-7.7782-2.8284-2.6984-0.98126-7.6976 0-10.607 0-1.5714 0-4.7736-4.1769-5.6568-4.9497-3.4219-2.9942-4.716-8.4319-4.2427-10.607zm162.18 18.385c0.6127-3.0246-6.5728-5.1732-8.0282-6.364-2.4391-1.9956-4.5634-2.2817-7.071-3.5355-3.6417-1.8208-6.8943 1.644-8.4853 2.1213-2.8094 0.84281-5.3385 1.9412-7.7782 2.8284-4.4294 1.6107-2.3378 2.6718-4.9497 5.6569-2.9635 3.3868 0.3091 6.8446 1.4142 7.7782 2.0289 0.51326 2.357-2.8284 3.5355-4.2426 0.8557-1.0268 1.3121-0.93722 4.9497-3.5355 1.9837-1.4169 5.2513 4.5948 5.6569 4.9498l5.6569 4.9497c1.8459 1.6152 5.4576 1.5658 8.2352 2.1213 2.3634-0.87732-1.6356-3.2998-2.5784-4.9497-1.173-2.0527-3.8659-3.8659-5.6568-5.6569-4.4669-4.4668 1.6508-4.4022 2.1213-5.6568 0.6291-1.6776 7.6401 2.7782 7.7782 2.8284 4.763 2.1184-1.5591-0.25844 5.1997 0.7071zm243.7-19.799c2.0932 0.76114 6.1323 5.5748 7.7782 7.0711 2.2586 2.0533 3.7716 3.3001 5.6569 4.9498 2.7197 2.3797-2.6618 7.3198-2.8285 7.7782-0.6042 1.6617-2.6139 6.7056-2.8284 7.7782-0.1526 0.76327-8.0036 1.2953-9.1924 1.4142-4.1059 0.41059-6.6148-0.8987-9.1924-1.4142-3.6831-0.73664-5.4729 0.10463-8.4852 0.7071-4.3191 0.86382-5.2693-0.44941-8.4853-1.4142-3.0595-0.91785-4.1556 0.75556-7.7782 1.4142-2.9385 0.53427-6.2681-1.4562-8.4853-2.1213-1.889-0.56671-7.1544 1.1397-9.8995 1.4142-3.4018 0.34018-7.585-0.47566-9.8995-0.70711-2.3944-0.23944-5.1818-1.4142-9.1924-1.4142-4.0433 0-6.3251-0.69935-9.8995-1.4142-4.3354-0.86709-5.1108-1.8585-7.7781-2.8284-3.4421-1.2517-2.87-3.28-4.9498-5.6569-3.0438-3.4787 1.7109-5.7028 2.1213-7.0711 1.0458-3.486 4.2707-3.3216 6.364-4.9497 2.6894-2.0918 5.499-0.40848 8.4853-0.70711 2.295-0.22951 7.2952 0.18972 9.1924 0 2.533-0.2533 5.2068-2.6034 7.071-3.5355 3.7452-1.8726 4.1472 1.2442 7.0711 2.1213 4.6636 1.3991 5.3539-0.4748 8.4853-1.4142 2.0628-0.61885 6.3426-1.907 8.4853-2.1213 3.4246-0.34247 7.3702-0.45418 9.8995-0.70711 0.0912-0.00912 5.6935-3.7957 6.3639-4.2426 2.6665-1.7777 4.8366-1.9459 7.7782-2.8284 2.9952-0.89855 6.487-0.70711 9.8995-0.70711 5.7521 0 2.95 2.5813 5.6569 4.9498 0.4111 0.35973-7.9245 1.2874-9.1924 1.4142-3.1678 0.31678-6.2736-0.34452-9.8995-0.70711-2.2446-0.22445-4.6313 4.0524-5.6569 4.9498-2.078 1.8183-5.2014 1.4646-8.4853 2.1213-3.0449 0.60898-6.4496 0.70711-9.8995 0.70711-3.4658 0-5.0141 1.8233-7.7781 2.8284-3.2905 1.1965-6.5046 0.26878-9.1924 0-3.4496-0.34496-4.8493-0.29289-7.7782 0-2.2895 0.22895-4.7243 1.7452-8.4853 2.1213-2.7425 0.27425-6.4766-0.36483-9.8995-0.70711-3.5156-0.35156-2.5042 5.0084-3.5355 7.0711-0.809 1.618 6.2616 3.1308 7.0711 3.5355 3.1174 1.5588 5.3502 1.03 9.1923 1.4142 4.1804 0.41803 5.6475 1.27 8.4853 2.1213 2.2933 0.68799 6.0986-2.6024 7.7782-3.5355 2.2287-1.2382 4.2426 2.8284 6.364 4.2426 1.7309 1.1539 8.4218 0 10.607 0 3.7551 0 5.7159-0.71892 9.1924-1.4142 2.4821-0.49644 5.6975 1.285 8.4852 2.1213 1.8107 0.54319 6.8717-1.1822 9.1924-1.4142 2.0089-0.2009 5.6656 2.0602 7.7782 2.8284 3.4656 1.2602 6.888-0.95333 9.1924-1.4142 4.1473-0.82946 2.0065-4.013 3.5355-7.0711 0.6653-1.3306-4.267-4.8766-4.9497-5.6568-1.9153-2.1889-3.83-3.3512-5.6569-4.9498-2.1702-1.8989 1.1331-2.6438 2.1213-4.9498zm102.53 4.9498c-2.8047-2.4541 4.2427 6.1283 6.364 9.1924 1.5488 2.2372 1.8901 5.1979 2.8284 7.7782 1.0203 2.8057-0.5334 8.1626-0.7071 9.8995-0.2622 2.6222-4.714-2.357-7.0711-3.5355-0.3222-0.16112-5.0353-4.4059-5.6568-4.9497-1.6735-1.4643-3.7713 2.357-5.6569 3.5355-1.5654 0.9784-4.5481-5.1978-4.9497-5.6568-1.6499-1.8856-3.7713 3.2998-5.6569 4.9497-5.0532 4.4216-4.2535-4.8612-4.9497-5.6568-3.8159-2.2896-5.3915 4.7176-5.6569 4.9498-2.2986 2.0113-6.0973-0.90995-7.7782-1.4142-2.9811-0.89434-4.675-2.3375-7.071-3.5355-2.787-1.3935-3.2813-3.75-4.9498-5.6569l-4.9497-5.6568c-4.3271-4.9453 3.4365-4.1238 3.5355-4.2426 1.0397-1.2476 4.8364 5.5273 4.9498 5.6568 2.1122 2.4139 2.704 4.056 4.2426 6.364 1.2256 1.8384 6.6469 1.7536 8.4853 2.1213 2.6836 0.53672 6.3409-1.3459 8.6924-0.08579 1.3517 0.13517 7.1047 1.3827 8.2782 1.5 3.63 0.363 5.2404-1.1479 8.4852-2.1213 2.442-0.7326 4.2427 2.8284 6.364 4.2426 3.3598 2.2399 4.7333 1.0518 6.364 1.4142 2.5724 0.57166-0.9429-5.1854-1.4143-7.7782-0.3476-1.912-3.2775-4.9162-4.2426-6.364-1.7572-2.6358-3.2468-3.7106-4.9497-5.6569-4.4116-5.0418 1.8495-2.2195 3.5355-4.2426 1.298-1.5576 2.357 3.2998 3.5355 4.9498zm-8.4853-12.728c2.4674 2.1391-3.2998 5.1854-4.9497 7.7782-0.8777 1.3792-2.2476 2.8095-2.8284 3.5355-1.072 1.3399-3.2999-0.94281-4.9498-1.4142-2.2321-0.63773-4.2426 1.8856-6.3639 2.8284-1.3888 0.61725-1.4143-7.8527-1.4143-9.1924 0-2.1731 4.2427 0.94281 6.364 1.4142 6.4841 1.4409 2.2682-1.1341 4.2426-2.1213 1.3499-0.67494 1.8857-2.357 2.8285-3.5355 2.3725-2.9656 3.7217-3.1901 4.9497-4.2426 1.3629-1.1682 2.4142 2.5498 2.1213 4.9498zm-25.206 13.728c-2.1877 2.0538-6.3783 1.8284-9.4424 3.2426-2.0189 0.93182-2.357-3.7712-3.5355-5.6568-1.5252-2.4403 5.4547-3.0506 7.071-3.5355 5.9023-1.7707 4.5169 3.5772 5.9069 5.9498zm57.026 16.678c1.9128-0.57382 3.9886 7.4074 4.9498 9.1924 1.1667 2.1667-4.7141-1.4142-7.0711-2.1213-4.1458-1.2438-1.265-5.6925-1.4142-6.364-0.2607-1.1732 2.357-0.47141 3.5355-0.70711zm-492.85-73.539c-0.7686-3.459-7.0808-0.35452-10.607-0.7071-2.8251-0.28252-4.2063-4.2063-5.6568-5.6569-1.3443-1.3442-2.4876-6.642-2.8285-7.7782-0.3709-1.2364-7.229-1.2179-9.1924-1.4142-0.6414-0.06414-6.211 3.1056-7.071 3.5355-3.106 1.553-5.0278-3.3518-6.364-4.2426-3.9372-2.6248-4.8336 1.4501-7.071 2.1213-2.7163 0.81489-5.5758 2.1677-7.7782 2.8284-4.7527 1.4258-0.6672 5.3371-0.7071 5.6568-0.3846 3.0762 6.1524 0.80622 9.1924 1.4142 2.3911 0.47824-0.576 7.8296-0.7071 8.4853-0.4823 2.411-1.1674 5.3093-1.4143 7.7782-0.2357 2.357 4.7141-0.47141 7.0711-0.70711 2.772-0.2772 5.3029-1.0253 9.1924-1.4142 4.5793-0.45793 5.1667-1.8788 7.7782-2.8284 2.2427-0.81552 4.184-3.661 5.6568-4.9498 3.8116-3.3351-1.9653-6.551-2.1213-7.0711-0.5826-1.9421-3.2998 2.357-4.9497 3.5355-2.0335 1.4524-3.7366 4.9043-6.364 6.364-4.9978 2.7766-3.7057-2.316-5.6569-3.5355-0.9993-0.62461 1.4143-1.8856 2.1214-2.8284 1.4212-1.895 4.714 0.4714 7.071 0.70711 1.6913 0.16912-1.8856-2.8284-2.8284-4.2426-1.4174-2.1261-5.3557-1.4954-8.4853-2.1213-0.6105-0.12212 7.4315-1.3796 7.7782-1.4142 3.4719-0.34719 5.7375-1.7293 8.4853-2.8284 1.981-0.79242 4.6957 4.1088 5.6568 4.9497 1.553 1.3588 2.8769 5.7538 3.5356 7.0711 2.0207 4.0414 3.0775 2.0517 6.3639 4.2426 1.7309 1.1539 8.4218 0 10.607 0 1.6667 0-0.4714-3.2998-0.7071-4.9498zm-52.326 2.8284c1.1163 1.75-9.1003 3.9002-9.8995 4.2426-2.8143 1.2061-7.1086-0.42801-9.8995-0.70711-3.1411-0.31411-7.4162-0.65134-7.7781-2.8284-0.4186-1.7431 6.8838-1.9612 8.4852-2.1213 0.8457-0.08456-1.4142-0.94281-2.1213-1.4142-2.0475-1.365-5.714 0.83579-7.0711-1.8713-0.0993-1.3548 6.6158-4.2397 7.0711-4.4926 2.9271-1.6262 5.5371-1.1901 7.7782-1.4142 2.6221-0.26222-2.4428 5.4354-1.4142 7.7782 1.3159 1.8876 4.9926-3.857 6.3639-3.5355 3.1496 0.94466-0.9428 4.2426-1.4142 6.364-0.7158 3.2212 7.6161-2.6716 9.8995 0zm268.85-10.516v8c0 1.5624-5.8211 0.5-6 0.5-1.6415 0-3-1.3333-4.5-2-1.8839-0.83727-3.9487 1.2949-6 1.5-1.9833 0.19833-4.1789-1.6037-5.5-2-2.3807-0.71421-3.6519-0.5-6-0.5-2.0784 0-4.4442-0.18884-6-0.5-4.5673-0.91346-1.013-2.0259-1.5-3-1.0462-2.0923 4.6607-0.5 7-0.5 1.2019 0-1.3333-2-2-3-0.4396-0.65934-6.5301 0.40301-7.5 0.5-2.5351 0.25352-5.1641-0.31641-7-0.5-1.0626-0.10626-4.0622-1.7124-5.5-2-1.8971-0.37941-4.5305 0.5-7 0.5-2.8734 0-4.3086-0.23086-7-0.5-1.7549-0.17548-3.0078 4.1141-3.5 5-1.4342 2.5816-2.4476 1.3895-5.5 2-1.899 0.37979-5.229-1.1458-7-1.5-1.9723-0.39446-3.7892-2.3273-5-3-1.6919-0.93993-3.7017-1.501-5.5-2.5-1.6964-0.94246-5.5148-0.80148-7.5-1-2.3162-0.23161-4.2168-0.5-7-0.5-2.2303 0-3.7724 1.4817-5.5 2-1.7941 0.53824-3.1414 2.0943-4.5 3-1.8497 1.2331-1.5936 3.1871-2.5 5-0.9383 1.8766 3.6884 2.4589 4.5 3 1.8367 1.2244 5.6316-0.82632 6.5-1 2.1492-0.42984 3.764-1.0528 6-1.5 4.5015-0.9003 2.6145 1.162 4.5 2 0.3862 0.17166-4.4335 3.4483-4.5 3.5-1.4795 1.1507-4.1559 0.76559-6.5 1-2.4427 0.24427-5.0429 0-7.5 0-3.5848 0-3.6754-1.3365-5.5-2-1.6589-0.60325-1.1621-4.3104-1.5-6-0.5905-2.9523 1.4542-3.9991 2-5.5 0.9007-2.477 2.2836-1.9982 4-3.5 1.628-1.4245 3.8759-1.0752 6-1.5 2.1552-0.43103 3.7085-0.72085 6.5-1 2.4427-0.24427 5.0429 0 7.5 0 2.998 0 3.3218-2.6535 4.5-4 0.9259-1.0582 1.9333-3.8667 2.5-5 1.0347-2.0694 3.1862-1.5931 5-2.5 4.5495-2.2748 0.9534 2.3835 1 2.5 0.4104 1.0259-2.6954 4.0431-3 4.5-1.5093 2.2639 1.6924 4.6541 2 5.5 0.7694 2.1158 3.0005 2.0003 4.5 3 1.765 1.1767 4.3545 0.5 6 0.5 1.1088 0 3.3713-2.9499 4-3.5 1.7058-1.4926 3.3932-1.368 5.5-2 1.9228-0.57685 3.7645 1.8822 5 2.5 1.8934 0.94672 5.2548-0.32548 7-0.5 1.4575-0.14575 3.8987 1.4177 5.5 2 0.7832 0.28479 0-1.6667 0-2.5 0-1.8028-2-3-3-4.5-2.4699-3.7049 2.8208-3.2238 3.5-4 1.0051-1.1487 4.7062 2.3531 5 2.5 1.9333 0.96663 3.7345 1.5192 5.5 2.5 1.9731 1.0961 3.4931 1.3979 5.5 2 2.3712 0.71136 3.6884 0.71884 6.5 1 1.6667 0.16667-0.3333-3.3333-0.5-5-0.1342-1.3421 0.4141-3.3127 0.5-4 0.2357-1.8856 3 2.3333 4.5 3.5l4.5 3.5c2.2388 1.7413 3.1302-1.3912 4.5-2 1.6474-0.73217 2-3 3-4.5 0.6393-0.959 3.5394 3.5394 4 4l4 4c1.646 1.646 3.3308 1.9985 5 3 1.1816 0.70897 2.4622 4.032 3 5 1.8841 3.3914-0.7118 1.898-1.5 4-0.2524 0.67312-2.8154-4.2231-3-4.5-1.0513-1.5769-2.8149-2.463-4-3.5-1.1975-1.0478-4.2557-1.1511-6-1.5-2.526-0.50519-3.0256 2.3532-4.5 3.5-2.0549 1.5983-3.1523 0.93047-6 1.5-1.5968 0.31936-4.2694-1.1539-6-1.5-0.9941-0.19882-0.3333 2-0.5 3-0.2964 1.7782 3 2 4.5 3 1.2218 0.81455 4.9914-1.1974 6-1.5 3.3-0.98999 3.5409-1.7705 5-2.5 1.8079-0.90395 2.4668-0.54819 4.5-1 0.8762-0.1947 1.6667 0.66667 2.5 1zm94.5 12c2.3465-0.52143-2.6667-4-4-6-1.2044-1.8066-2.3101-2.6401-3.5-4-1.3809-1.5781-3.333-1.6665-5-2.5-2.437-1.2185-3.5568-0.35568-5-0.5-1.307-0.1307 0.8511 5.5038 1 6 1.0058 3.3528-2.0589 3.0883-3 4.5-0.9214 1.3821-4.3038 1.9563-5.5 2.5-2.1416 0.97346-3.5706 1.0141-6 1.5-2.0047 0.40094-5.1025-1.441-6.5-2-1.9977-0.79909-3.9359-0.74359-6.5-1-3.0504-0.30504-4.446-1.2338-7-2-1.7498-0.52493-3.281-1.6405-5-2.5-1.9335-0.96674-3.662-2.2567-5-3-1.9961-1.109-2.1177-2.4202-3.5-4-1.2846-1.4681-3.1789-2.1192-4.5-3-3.0461-2.0307 0-3.5332 0-4.5 0-2.2236 4.3702 0.86105 6.5 1.5 0.853 0.25591 1.933 5.1649 2 5.5 0.2839 1.4194 4.3532 1.656 5.5 2 4.7379 1.4214 2.4281-1.3875 3.5-2 0.2887-0.16499-3.4345-3.9252-3.5-4-1.1179-1.2776-3.4111-2.2741-4.5-3-2.964-1.976-0.5798-2.6092-1-4.5-0.4472-2.0125 4.0254 0.90762 6 1.5 2.9438 0.88314 4.1684-0.75789 5.5-1 0.6379-0.11598 2.3097-4.6195 2.5-5 0.7017-1.4034 3.8428-1.9214 5-2.5 1.7819-0.89092 5.8737 0.38738 7 0.5 4.1736 0.41736 1.157 3.4709 1.5 4.5 0.0986 0.29583-5.9634 0.5-7 0.5-2.4149 0-1.6217 3.6085-2 5.5-0.0376 0.18787 2.6906 4.0359 3 4.5 0.7899 1.1848-2.6667 1-4 1.5-1.6589 0.62208-1.4167-3.0833-4-3.5-1.7605 1.647 0.3333 3.3333 0.5 5 0.1707 1.7074-4.9167 3.75-2.5 4.5 0.4791 0.78766 5.3177 0.11823 6.5 0 3.1202-0.31201 3.8335-1.1334 6-2 1.4051-0.56205 1-4.2871 1-5.5 0-2.0616 4.0254 0.90762 6 1.5 1.506 0.45181-1.6667 2.6667-2.5 4-1.0785 1.7255-2.2206 3.3308-3 4.5-0.592 0.88796-1.3333 1.6667-2 2.5-0.1059 0.13238 5.9315 0.5 7 0.5 1.7967 0 4.0064-1.6702 5.5-2.5 3.2266-1.7926 0-2.9244 0-5v-5.5c0-2.0616-4.0254-0.90762-6-1.5-2.1494-0.64483-3.5175-4.2251-1.5-5-0.0461-0.15358 5.0389 2.2438 5.5 2.5 0.8862 0.49234 0.3333-2 0.5-3 0.3063-1.838-1.6667-3.3333-2.5-5-0.6708-1.3416 3 0 4.5 0 1.644 0 2.7775 3.1996 3.5 4.5 0.993 1.7875 1.9832 2.9748 3 4.5 0.2691 0.40371 5.0536 1.8377 5.5 2 2.1347 0.77627 3.2465 1.6233 5 2.5 1.8945 0.94726 2.8167 2.1908 4.5 3.5 2.1064 1.6383 1.8714 2.4062 3.5 4.5 1.3092 1.6833 1.9846 3.1724 3 5 3.0498 5.4897-3.0714 1.5357-4 2zm55.5-8c1.3038 2.3468-5.5683 2.3864-7 3-2.1158 0.90678-3.8556 0.28557-6 0.5-1.0373 0.10373-4.0936-2.0468-5-2.5-2.123-1.0615-3.0364-2.0242-4.5-3-1.5517-1.0344-4.1429-1.0286-6.5-1.5-1.144-0.2288 0 2.3333 0 3.5 0 2.0344 3.4689 2.1603 5 3.5 1.1871 1.0388-5.2383 1.4238-6 1.5-1.7194 0.17195-2.3627-3.544-3-4.5-1.4012-2.1018-2.2066-1.9308-4-3.5-1.6002-1.4002-3.6274-0.78823-6-1.5-1.697-0.50909 2.3333 2.6667 3.5 4 1.0088 1.1529 2.8283 2.4747 4 3.5 1.657 1.4498 2.7611 2.1475 4.5 3.5 3.1704 2.4659-1.4209 2.4866-2 3.5-1.1247 1.9682-4.3287-1.3486-6.5-2-1.287-0.38611-0.3333 2.6667-0.5 4-0.3888 3.1103-1.1515 2.5909-2 4.5-1.0741 2.4168-3.3068-2.8344-3.5-3-2.5526-2.188 2.7733-5.1978 3-5.5 1.7795-2.3726 0.7775-2.5917 1.5-5 0.5846-1.9486-3.3073-2.3715-5-3.5-1.5138-1.0092-2.16-3.24-3-4.5-1.1851-1.7777-1.6569-3.3139-2.5-5-1.8218-3.6436 0.6652-2.9933 1-4.5 0.4472-2.0125 3.9785 1.0957 6 1.5 3.7442 0.74885 1.9122-3.0595 2.5-4 0.8144-1.303-3 0.66667-4.5 1-3.5037 0.77861-2.5382-2.5382-4-4-0.7654-0.76536 3.3975-3.8828 3.5-4 1.6617-1.8991 3.7655 3.2948 4 3.5 3.6504 3.1941 1.4678-0.62906 3.5-1.5 4.2989-1.8424 5.5 4 6.5 5.5 0.9291 1.3937 3.3333-0.33333 5-0.5 4.3179-0.43179 0.8237-1.0982 3-4 1.9304-2.5739 1.6381-1.5 5-1.5 3.2004 0 0 4.6272 0 5 0 1.6667-2 2.6667-3 4-1.1705 1.5606 3.6667 1.3333 5.5 2 3.3646 1.2235 2.2898 0.5 5.5 0.5 2.5904 0 4.255 0.32649 6.5 1 2.8522 0.85565 1.3991 2.7982 2.5 5 1.1206 2.2412-5.1441 1-5.5 1-1.7717 0-2.3333-2.6667-3.5-4-0.7362-0.8414-2 1-3 1.5-1.075 0.53749 0.9167 3.25-2 3-0.0809 0.12133-3.3741-3.8561-3.5-4-1.2067-1.3791-3.76-2.3111-5-3-1.3091-0.72729-5.0708-0.85708-6.5-1-2.0316-0.20316-3.583-0.7417-6-0.5-3.2886 0.32886-1.8637 2.9819-2.5 4-0.0341 0.05464 5.9151 0.5 7 0.5 2.6846 0 4.9015 0.29015 7 0.5 2.0548 0.20549 3.3915 1.6958 5 2.5l5 2.5c1.912 0.956 4.5827 0.80827 6.5 1 1.5785 0.15786 3.6615-1.3314 5.5-2 1.6942-0.61608 3 2 4.5 3zm32.5-1.5c-4.3211-1.662-1.9627 3.1404-2.5 4-2.1769 3.4831-1.9897 0.44217-4.5 1-0.77 0.17112-4.0537-2.0268-5-2.5-4.2903-2.1452-2.1089 3.3742-2.5 4-0.7122 1.1395-1.3333 2.3333-2 3.5-0.9957 1.7425-2.6784-2.9896-4-4.5-1.3795-1.5766-1.9908-3.6543-3-5-1.2409-1.6545-2.6983-2.361-4-3.5-1.6748-1.4654-1.9246-2.8868-3-4.5-0.1821-0.27321-4.1924-2.795-4.5-3-2.3226-1.5484-0.0892-4.6076 0-5.5 0.1763-1.7629 2.6667 2.3333 4 3.5 2.3872 2.0888 2.6205 0.26205 5 0.5 3.481 0.3481 2.1796 1.9072 4 3.5 1.8829 1.6475 2.4773 1.6516 4.5 3 2.0896 1.393 3.6822 2.5116 5 3.5 1.9997 1.4998 2.9543 1.313 4.5 2 1.5901 0.7067-1-3.3333-1.5-5-0.2002-0.66743-3.4374-3.4374-4-4-1.2198-1.2198-4.1472-1.5942-5.5-2-1.7275-0.51825-2.945-2.5769-4-3.5-1.7587-1.5389-2.7222-2.7222-4-4-2.1263-2.1262-1.1123-2.2246-2.5-5-1.7961-3.5922 3.2142-2.1428 4.5-3 0.9166-0.61108 4.8635 1.5454 6 2 2.2818 0.91273 2.2156 2.5321 3.5 4 2.9284 3.3468-3.8914 1.4593-4 1.5-8.2305 0.1177-0.3497 3.8951 3.5 5 1.9718 0.59155 5.6189 0.3119 7.5 0.5 1.3604 0.13605 3.8441 2.6331 5 3.5 1.586 1.1895 2.7147 2.3754 4 3.5 1.5104 1.3216 4.003 0.3003 6 0.5 0.5607 0.05607 0.787 3.9352 1 5 1.0364 5.182-5.3333 1.8333-7.5 1zm18-17c-9.9562-7.618-7.0789 2.2533-3 4.5 4.6525 2.9269 9 1.1667 3-4.5zm-6 28.5c-1.675 0 0.3333 3.3333 0.5 5 0.1787 1.7874 4.5182 2.9546 5.5 3.5 2.1733 1.2074 3.875 1.8625 6 2.5 4.1141-2.1158-2.5676-11.25-12-11z" fill="url(#g)" fill-rule="evenodd" opacity=".51852" stroke="url(#f)" stroke-opacity=".67568" stroke-width=".78011"/>
  <path d="m1725.3 196.06c-0.5437-7.6208-22.395-6.1756-22.627-0.7071-0.4235 9.9574 23.348 10.8 22.627 0.7071z" fill="#67594c" fill-opacity=".76216" fill-rule="evenodd" stroke="#a79e93" stroke-opacity=".77838" stroke-width="1.2259"/>
  <path d="m1772 265.81c-0.5437-7.6208-16.738-7.5898-16.97-2.1213-0.4235 9.9574 17.691 12.214 16.97 2.1213z" fill="#67594c" fill-opacity=".76216" fill-rule="evenodd" stroke="#a79e93" stroke-opacity=".77838" stroke-width="1.8388"/>
  <path d="m1826.5 258.71c-4.5407 6.1444 7.7852 16.648 11.517 12.644 6.7948-7.2912-5.5032-20.781-11.517-12.644z" fill="#67594c" fill-opacity=".76216" fill-rule="evenodd" stroke="#a79e93" stroke-opacity=".77838" stroke-width="1.8388"/>
  <path d="m1508 214.36h-16c-5.5501 0-7.625-1.6875-12-3-4.5679-1.3704-6.4778-1.8956-12-3-4.765-0.95301-9.061-0.39389-13 0-4.3638 0.43638-7.7311 1.4731-13 2-5.2752 0.52752-8.5975-1.9792-12-3-4.2181-1.2654-9.4031-1.4403-15-2-4.8854-0.48854-10.086 0-15 0h-15c-5.5735 0-10.968 0.49686-16 1-6.5955 0.65955-8.3629-1.9088-12-3-4.891-1.4673-6.3524-1.8705-12-3-5.7904-1.1581-9.5357 1.3072-13 2-3.9259 0.78518-6.4894 2.6468-11 4-4.1284 1.2385-10.652 0-15 0-3.8547 0-8.1415-1.5142-13-2-4.8854-0.48854-10.086 0-15 0-5.0049 0-9.6323-1.5632-14-2-2.8339-0.28338 2-5.3333 3-8 1.3622-3.6325 7.5987-2.9796 11-4 3.5696-1.0709 3.3333 6.6667 5 10 0.634 1.268 7.5687-6.6226 8-7 3.1322-2.7407 4.9602-6.3774 7-9 4.2085-5.4109-5.5553-3.6555-9-4-1.3675-0.13675-2.6667-0.66666-4-1-3.1849-0.79623 2.6667-6 4-9 1.9001-4.2753-9.3447 0.53447-14 1-2.4429 0.24429-8.925 5.8472-11 7-2.7489 1.5272-3.3333-5.3333-5-8-1.0997-1.7594-12.491 0.84911-14 1-5.9119 0.59119-7.9867 1.796-12 3-1.6941 0.50822-6.703 5.8652-8 7-1.3422 1.1744-9.3851-3.4128-11-4-6.1126-2.2228-7.6491 1.3908-11 2-3.0236 0.54975 4 4.6667 6 7 2.6122 3.0476 8.0061 0.60061 12 1 3.5877 0.35877-6 4-9 6-1.6586 1.1058-12.945 0.89453-14 1-3.0509 0.30509-7.521 2.9563-11 4-4.1637 1.2491-7.5689 2.1138-12 3-3.7541 0.75082-6.8878 4.9252-10 7-5.64 3.76-1.4323 7.6769-1 12 0.298 2.9799 13.997 3.4e-4 14 0 1.7861-0.17861-1.3333 3.3333-2 5-0.8878 2.2196-10.047 3.6094-12 4-3.5204 0.70408 2.6667 6.6667 4 10 1.5313 3.8282 8.0508-1.8152 12-3 2.8557-0.8567 5.3333-2.6667 8-4 2.6998-1.3499-0.6667 6-1 9-0.3413 3.0714 12.964-4.9798 13-5 3.6904-2.0502 5.8658-4.7032 10-7 4.4778-2.4877 5.7326 6.5515 7 8 0.5726 0.65439 1.927 13.635 2 14 0.7624 3.8118 6.6667-4 10-6 2.3251-1.3951-4.8946-9.7891-5-10-3.2396-6.4793 2.3135-6.9642 4-10l5-9c2.2721-4.0898-9.3447 0.53447-14 1-2.5755 0.25755-8.8572 2-12 2-2.8674 0 3.3333-4.6667 5-7 2.5261-3.5366 8.7383-0.14765 13-1 2.2159-0.44318 2.6771-10.386 3-12 0.7309-3.6544 7.3333 1.3333 11 2 2.2372 0.40677 2.8733 10.733 3 12 0.0336 0.33602 7.1142 6.2249 8 7 4.3962 3.8466 8.7767-1.333 11-2 5.5087-1.6526 6.6153-0.60138 11-1 2.0559-0.1869 8.2736 2.2547 12 3 3.3353 0.66706 10.808 2.7615 12 3 1.3428 0.26856 5.5046 3.4505 11 4 3.8564 0.38564 7.687-4.6122 10-6 3.4067-2.044 7.2568-2.9205 11-5 3.7758-2.0977 5.9608-2.9804 10-5 3.8765-1.9382 9.3422-0.53422 14-1 5.2867-0.52867 6.5744 4.3829 9 6 5.0618 3.3745 4.4439 3.2444 12 4 5.403 0.5403 8.5246-1.1049 13-2 3.9172-0.78344 11.416-0.74162 14-1 3.8845-0.38844 6.9895-1.9979 12-3 4.3061-0.86122 9.1212-1 14-1 8.852 0-2.0666 2.5833-4 5-2.5757 3.2196-8.0508 1.8152-12 3-2.1531 0.64593 9.3136 4.4941 11 5 4.7009 1.4103 10.677-2.0031 14-3 4.2125-1.2638 7.2182-1.4218 13-2 5.8518-0.58517 11.522 0.90431 17 2 6.2075 1.2415 9.028-2.1084 12-3 4.0728-1.2218 8.1418-1.5142 13-2 5.8957-0.58957 6.7317 3.3658 10 5 3.895 1.9475 8.1543 3.4617 12 5 6.9663 2.7865 3.557-8.0032 4-9 0.9216-2.0736-6.712-4.195-8-5z" fill="#a7a59b" fill-opacity=".44324" fill-rule="evenodd" stroke="#a7a59c" stroke-opacity=".23784" stroke-width="2.006"/>
 </g>
 <path transform="matrix(.88117 0 0 .88117 -321.29 44.438)" d="m1498.2 545.26a516.14 493.04 0 1 1 -1032.3 0 516.14 493.04 0 1 1 1032.3 0z" fill="url(#e)" stroke="#000" stroke-width="2.2198"/>
</svg>
