<?xml version="1.0" standalone="no"?>
<!DOCTYPE svg PUBLIC "-//W3C//DTD SVG 20010904//EN"
 "http://www.w3.org/TR/2001/REC-SVG-20010904/DTD/svg10.dtd">
<svg version="1.0" xmlns="http://www.w3.org/2000/svg"
 width="251.000000pt" height="251.000000pt" viewBox="0 0 251.000000 251.000000"
 preserveAspectRatio="xMidYMid meet">
<metadata>
Created by potrace 1.14, written by Peter Selinger 2001-2017
</metadata>
<g transform="translate(0.000000,251.000000) scale(0.100000,-0.100000)"
fill="#000000" stroke="none">
<path d="M290 2495 c-83 -25 -90 -27 -90 -36 0 -5 -6 -9 -13 -9 -20 0 -101
-81 -130 -131 -59 -101 -57 -59 -54 -1084 l2 -940 31 -66 c40 -83 110 -153
194 -193 l65 -31 955 0 955 0 65 31 c86 41 148 103 191 189 l34 70 0 960 0
960 -31 65 c-39 83 -106 150 -192 192 l-67 33 -935 2 c-761 2 -943 -1 -980
-12z"/>
</g>
</svg>
